<svg width="59" height="47" viewBox="0 0 59 47" fill="none" xmlns="http://www.w3.org/2000/svg">
<path d="M24.9652 34.524C24.9652 32.0122 26.9501 30.0207 29.4537 30.0207C31.9573 30.0207 33.9422 32.0122 33.9422 34.524C33.9422 37.0358 31.9573 39.0272 29.4537 39.0272C26.9501 39.0272 24.9652 37.0358 24.9652 34.524Z" fill="white"/>
<path d="M26.6115 12.7545C26.6115 11.1621 27.8672 9.90229 29.4544 9.90229C31.0415 9.90229 32.2972 11.1621 32.2972 12.7545C32.2972 14.3469 31.0415 15.6067 29.4544 15.6067C27.8672 15.6067 26.6115 14.3469 26.6115 12.7545Z" fill="white"/>
<path d="M58.9996 0.270529V0H38.7724V0.270529C40.8063 1.84515 42.8406 3.41934 44.8744 4.99396V21.1705H14.187V4.99396C16.2003 3.41934 18.2135 1.84515 20.2272 0.270529V0H0V0.270529C2.03386 1.84515 4.06816 3.41934 6.10203 4.99396V41.9513C4.06816 43.5449 2.03386 45.1385 0 46.7321V47H20.2272V46.7321C18.2139 45.1385 16.2007 43.5449 14.187 41.9513V24.2977H44.8749V41.9513C42.841 43.5449 40.8067 45.1385 38.7728 46.7321V47H59V46.7321C56.9868 45.1385 54.9735 43.5449 52.9598 41.9513V4.99396C54.9731 3.41934 56.9859 1.84515 58.9996 0.270529Z" fill="white"/>
</svg>
