<svg width="675" height="553" viewBox="0 0 675 553" fill="none" xmlns="http://www.w3.org/2000/svg">
<path d="M404.429 5.6858C401.058 38.3403 395.974 70.8122 389.197 102.928C420.279 113.056 447.207 135.391 462.909 164.081C449.797 164.151 439.743 175.67 433.313 187.094C426.874 198.518 421.591 211.489 410.694 218.775C400.901 225.321 388.441 225.973 376.667 226.278C342.152 227.164 304.431 227.982 278.102 250.343C267.275 259.541 259.351 271.712 248.95 281.38C238.54 291.056 223.959 298.298 210.342 294.247C195.822 289.926 187.819 274.816 181.181 261.193C143.747 184.329 99.9782 109.952 44.001 45.3389C101.925 37.2449 153.592 14.7449 209.552 2.04303C227.026 -1.92142 405.003 0.199908 404.429 5.6858Z" fill="#F4EEE3"/>
<path d="M450.289 104.429C434.34 171.3 418.375 238.167 402.426 305.038C376.354 340.72 350.261 376.414 324.189 412.095C375.886 449.005 427.587 485.899 479.284 522.809C514.389 475.884 549.494 428.959 584.596 382.051C612.652 315.568 640.708 249.085 668.764 182.602C595.944 156.551 523.11 130.48 450.289 104.429Z" fill="#8D9984"/>
<path d="M361.284 143.387C366.192 176.855 369.339 210.581 370.708 244.379C404.337 246.596 436.919 262.063 459.883 286.718C446.8 290.121 439.673 304.178 436.133 317.23C432.593 330.281 430.608 344.571 421.557 354.616C413.431 363.646 401.141 367.466 389.446 370.755C355.172 380.41 317.674 390.819 297.034 419.837C288.541 431.774 283.713 445.939 275.763 458.249C267.819 470.553 255.07 481.499 240.436 480.913C224.833 480.283 212.994 467.235 202.911 455.315C119.021 455.315 100.521 519.413 82.1953 328.237C138.046 305.434 112.848 216.183 165.555 189.28C182.015 180.876 360.432 137.761 361.258 143.385L361.284 143.387Z" fill="#D0DFE4"/>
<path d="M263.542 50.108C262.594 50.108 261.718 49.952 260.914 49.64C260.11 49.316 259.414 48.866 258.826 48.29C258.238 47.714 257.776 47.036 257.44 46.256C257.116 45.476 256.954 44.624 256.954 43.7C256.954 42.776 257.116 41.924 257.44 41.144C257.776 40.364 258.238 39.686 258.826 39.11C259.426 38.534 260.128 38.09 260.932 37.778C261.736 37.454 262.612 37.292 263.56 37.292C264.472 37.292 265.33 37.448 266.134 37.76C266.938 38.06 267.616 38.516 268.168 39.128L267.322 39.974C266.806 39.446 266.236 39.068 265.612 38.84C264.988 38.6 264.316 38.48 263.596 38.48C262.84 38.48 262.138 38.612 261.49 38.876C260.842 39.128 260.278 39.494 259.798 39.974C259.318 40.442 258.94 40.994 258.664 41.63C258.4 42.254 258.268 42.944 258.268 43.7C258.268 44.456 258.4 45.152 258.664 45.788C258.94 46.412 259.318 46.964 259.798 47.444C260.278 47.912 260.842 48.278 261.49 48.542C262.138 48.794 262.84 48.92 263.596 48.92C264.316 48.92 264.988 48.8 265.612 48.56C266.236 48.32 266.806 47.936 267.322 47.408L268.168 48.254C267.616 48.866 266.938 49.328 266.134 49.64C265.33 49.952 264.466 50.108 263.542 50.108ZM274.167 50.09C273.255 50.09 272.433 49.886 271.701 49.478C270.981 49.058 270.411 48.488 269.991 47.768C269.571 47.036 269.361 46.202 269.361 45.266C269.361 44.318 269.571 43.484 269.991 42.764C270.411 42.044 270.981 41.48 271.701 41.072C272.421 40.664 273.243 40.46 274.167 40.46C275.103 40.46 275.931 40.664 276.651 41.072C277.383 41.48 277.953 42.044 278.361 42.764C278.781 43.484 278.991 44.318 278.991 45.266C278.991 46.202 278.781 47.036 278.361 47.768C277.953 48.488 277.383 49.058 276.651 49.478C275.919 49.886 275.091 50.09 274.167 50.09ZM274.167 48.956C274.851 48.956 275.457 48.806 275.985 48.506C276.513 48.194 276.927 47.762 277.227 47.21C277.539 46.646 277.695 45.998 277.695 45.266C277.695 44.522 277.539 43.874 277.227 43.322C276.927 42.77 276.513 42.344 275.985 42.044C275.457 41.732 274.857 41.576 274.185 41.576C273.513 41.576 272.913 41.732 272.385 42.044C271.857 42.344 271.437 42.77 271.125 43.322C270.813 43.874 270.657 44.522 270.657 45.266C270.657 45.998 270.813 46.646 271.125 47.21C271.437 47.762 271.857 48.194 272.385 48.506C272.913 48.806 273.507 48.956 274.167 48.956ZM293.408 40.46C294.176 40.46 294.842 40.61 295.406 40.91C295.982 41.198 296.426 41.642 296.738 42.242C297.062 42.842 297.224 43.598 297.224 44.51V50H295.946V44.636C295.946 43.64 295.706 42.89 295.226 42.386C294.758 41.87 294.092 41.612 293.228 41.612C292.58 41.612 292.016 41.75 291.536 42.026C291.068 42.29 290.702 42.68 290.438 43.196C290.186 43.7 290.06 44.312 290.06 45.032V50H288.782V44.636C288.782 43.64 288.542 42.89 288.062 42.386C287.582 41.87 286.91 41.612 286.046 41.612C285.41 41.612 284.852 41.75 284.372 42.026C283.892 42.29 283.52 42.68 283.256 43.196C283.004 43.7 282.878 44.312 282.878 45.032V50H281.6V40.55H282.824V43.106L282.626 42.656C282.914 41.972 283.376 41.438 284.012 41.054C284.66 40.658 285.422 40.46 286.298 40.46C287.222 40.46 288.008 40.694 288.656 41.162C289.304 41.618 289.724 42.308 289.916 43.232L289.412 43.034C289.688 42.266 290.174 41.648 290.87 41.18C291.578 40.7 292.424 40.46 293.408 40.46ZM312.498 40.46C313.266 40.46 313.932 40.61 314.496 40.91C315.072 41.198 315.516 41.642 315.828 42.242C316.152 42.842 316.314 43.598 316.314 44.51V50H315.036V44.636C315.036 43.64 314.796 42.89 314.316 42.386C313.848 41.87 313.182 41.612 312.318 41.612C311.67 41.612 311.106 41.75 310.626 42.026C310.158 42.29 309.792 42.68 309.528 43.196C309.276 43.7 309.15 44.312 309.15 45.032V50H307.872V44.636C307.872 43.64 307.632 42.89 307.152 42.386C306.672 41.87 306 41.612 305.136 41.612C304.5 41.612 303.942 41.75 303.462 42.026C302.982 42.29 302.61 42.68 302.346 43.196C302.094 43.7 301.968 44.312 301.968 45.032V50H300.69V40.55H301.914V43.106L301.716 42.656C302.004 41.972 302.466 41.438 303.102 41.054C303.75 40.658 304.512 40.46 305.388 40.46C306.312 40.46 307.098 40.694 307.746 41.162C308.394 41.618 308.814 42.308 309.006 43.232L308.502 43.034C308.778 42.266 309.264 41.648 309.96 41.18C310.668 40.7 311.514 40.46 312.498 40.46ZM323.686 50.09C322.882 50.09 322.18 49.94 321.58 49.64C320.98 49.34 320.512 48.89 320.176 48.29C319.852 47.69 319.69 46.94 319.69 46.04V40.55H320.968V45.896C320.968 46.904 321.214 47.666 321.706 48.182C322.21 48.686 322.912 48.938 323.812 48.938C324.472 48.938 325.042 48.806 325.522 48.542C326.014 48.266 326.386 47.87 326.638 47.354C326.902 46.838 327.034 46.22 327.034 45.5V40.55H328.312V50H327.088V47.408L327.286 47.876C326.986 48.572 326.518 49.118 325.882 49.514C325.258 49.898 324.526 50.09 323.686 50.09ZM336.698 40.46C337.466 40.46 338.138 40.61 338.714 40.91C339.302 41.198 339.758 41.642 340.082 42.242C340.418 42.842 340.586 43.598 340.586 44.51V50H339.308V44.636C339.308 43.64 339.056 42.89 338.552 42.386C338.06 41.87 337.364 41.612 336.464 41.612C335.792 41.612 335.204 41.75 334.7 42.026C334.208 42.29 333.824 42.68 333.548 43.196C333.284 43.7 333.152 44.312 333.152 45.032V50H331.874V40.55H333.098V43.142L332.9 42.656C333.2 41.972 333.68 41.438 334.34 41.054C335 40.658 335.786 40.46 336.698 40.46ZM344.038 50V40.55H345.316V50H344.038ZM344.686 38.462C344.422 38.462 344.2 38.372 344.02 38.192C343.84 38.012 343.75 37.796 343.75 37.544C343.75 37.292 343.84 37.082 344.02 36.914C344.2 36.734 344.422 36.644 344.686 36.644C344.95 36.644 345.172 36.728 345.352 36.896C345.532 37.064 345.622 37.274 345.622 37.526C345.622 37.79 345.532 38.012 345.352 38.192C345.184 38.372 344.962 38.462 344.686 38.462ZM351.86 50.09C350.972 50.09 350.288 49.85 349.808 49.37C349.328 48.89 349.088 48.212 349.088 47.336V38.462H350.366V47.264C350.366 47.816 350.504 48.242 350.78 48.542C351.068 48.842 351.476 48.992 352.004 48.992C352.568 48.992 353.036 48.83 353.408 48.506L353.858 49.424C353.606 49.652 353.3 49.82 352.94 49.928C352.592 50.036 352.232 50.09 351.86 50.09ZM347.396 41.612V40.55H353.246V41.612H347.396ZM356.081 53.582C355.637 53.582 355.211 53.51 354.803 53.366C354.407 53.222 354.065 53.006 353.777 52.718L354.371 51.764C354.611 51.992 354.869 52.166 355.145 52.286C355.433 52.418 355.751 52.484 356.099 52.484C356.519 52.484 356.879 52.364 357.179 52.124C357.491 51.896 357.785 51.488 358.061 50.9L358.673 49.514L358.817 49.316L362.705 40.55H363.965L359.231 51.134C358.967 51.746 358.673 52.232 358.349 52.592C358.037 52.952 357.695 53.204 357.323 53.348C356.951 53.504 356.537 53.582 356.081 53.582ZM358.601 50.27L354.245 40.55H355.577L359.429 49.226L358.601 50.27Z" fill="#404040"/>
<path d="M125.349 408.034H132.009V409.168H125.349V408.034ZM125.493 413.848H133.071V415H124.161V402.4H132.801V403.552H125.493V413.848ZM140.756 405.46C141.524 405.46 142.196 405.61 142.772 405.91C143.36 406.198 143.816 406.642 144.14 407.242C144.476 407.842 144.644 408.598 144.644 409.51V415H143.366V409.636C143.366 408.64 143.114 407.89 142.61 407.386C142.118 406.87 141.422 406.612 140.522 406.612C139.85 406.612 139.262 406.75 138.758 407.026C138.266 407.29 137.882 407.68 137.606 408.196C137.342 408.7 137.21 409.312 137.21 410.032V415H135.932V405.55H137.156V408.142L136.958 407.656C137.258 406.972 137.738 406.438 138.398 406.054C139.058 405.658 139.844 405.46 140.756 405.46ZM151.084 415.09C150.196 415.09 149.512 414.85 149.032 414.37C148.552 413.89 148.312 413.212 148.312 412.336V403.462H149.59V412.264C149.59 412.816 149.728 413.242 150.004 413.542C150.292 413.842 150.7 413.992 151.228 413.992C151.792 413.992 152.26 413.83 152.632 413.506L153.082 414.424C152.83 414.652 152.524 414.82 152.164 414.928C151.816 415.036 151.456 415.09 151.084 415.09ZM146.62 406.612V405.55H152.47V406.612H146.62ZM155.409 415V405.55H156.633V408.124L156.507 407.674C156.771 406.954 157.215 406.408 157.839 406.036C158.463 405.652 159.237 405.46 160.161 405.46V406.702C160.113 406.702 160.065 406.702 160.017 406.702C159.969 406.69 159.921 406.684 159.873 406.684C158.877 406.684 158.097 406.99 157.533 407.602C156.969 408.202 156.687 409.06 156.687 410.176V415H155.409ZM166.419 415.09C165.435 415.09 164.571 414.886 163.827 414.478C163.083 414.058 162.501 413.488 162.081 412.768C161.661 412.036 161.451 411.202 161.451 410.266C161.451 409.33 161.649 408.502 162.045 407.782C162.453 407.062 163.005 406.498 163.701 406.09C164.409 405.67 165.201 405.46 166.077 405.46C166.965 405.46 167.751 405.664 168.435 406.072C169.131 406.468 169.677 407.032 170.073 407.764C170.469 408.484 170.667 409.318 170.667 410.266C170.667 410.326 170.661 410.392 170.649 410.464C170.649 410.524 170.649 410.59 170.649 410.662H162.423V409.708H169.965L169.461 410.086C169.461 409.402 169.311 408.796 169.011 408.268C168.723 407.728 168.327 407.308 167.823 407.008C167.319 406.708 166.737 406.558 166.077 406.558C165.429 406.558 164.847 406.708 164.331 407.008C163.815 407.308 163.413 407.728 163.125 408.268C162.837 408.808 162.693 409.426 162.693 410.122V410.32C162.693 411.04 162.849 411.676 163.161 412.228C163.485 412.768 163.929 413.194 164.493 413.506C165.069 413.806 165.723 413.956 166.455 413.956C167.031 413.956 167.565 413.854 168.057 413.65C168.561 413.446 168.993 413.134 169.353 412.714L170.073 413.542C169.653 414.046 169.125 414.43 168.489 414.694C167.865 414.958 167.175 415.09 166.419 415.09ZM178.146 415.09C177.33 415.09 176.592 414.904 175.932 414.532C175.272 414.148 174.744 413.602 174.348 412.894C173.964 412.174 173.772 411.298 173.772 410.266C173.772 409.234 173.964 408.364 174.348 407.656C174.732 406.936 175.254 406.39 175.914 406.018C176.574 405.646 177.318 405.46 178.146 405.46C179.046 405.46 179.85 405.664 180.558 406.072C181.278 406.468 181.842 407.032 182.25 407.764C182.658 408.484 182.862 409.318 182.862 410.266C182.862 411.226 182.658 412.066 182.25 412.786C181.842 413.506 181.278 414.07 180.558 414.478C179.85 414.886 179.046 415.09 178.146 415.09ZM173.268 418.492V405.55H174.492V408.394L174.366 410.284L174.546 412.192V418.492H173.268ZM178.056 413.956C178.728 413.956 179.328 413.806 179.856 413.506C180.384 413.194 180.804 412.762 181.116 412.21C181.428 411.646 181.584 410.998 181.584 410.266C181.584 409.534 181.428 408.892 181.116 408.34C180.804 407.788 180.384 407.356 179.856 407.044C179.328 406.732 178.728 406.576 178.056 406.576C177.384 406.576 176.778 406.732 176.238 407.044C175.71 407.356 175.29 407.788 174.978 408.34C174.678 408.892 174.528 409.534 174.528 410.266C174.528 410.998 174.678 411.646 174.978 412.21C175.29 412.762 175.71 413.194 176.238 413.506C176.778 413.806 177.384 413.956 178.056 413.956ZM185.468 415V405.55H186.692V408.124L186.566 407.674C186.83 406.954 187.274 406.408 187.898 406.036C188.522 405.652 189.296 405.46 190.22 405.46V406.702C190.172 406.702 190.124 406.702 190.076 406.702C190.028 406.69 189.98 406.684 189.932 406.684C188.936 406.684 188.156 406.99 187.592 407.602C187.028 408.202 186.746 409.06 186.746 410.176V415H185.468ZM196.478 415.09C195.494 415.09 194.63 414.886 193.886 414.478C193.142 414.058 192.56 413.488 192.14 412.768C191.72 412.036 191.51 411.202 191.51 410.266C191.51 409.33 191.708 408.502 192.104 407.782C192.512 407.062 193.064 406.498 193.76 406.09C194.468 405.67 195.26 405.46 196.136 405.46C197.024 405.46 197.81 405.664 198.494 406.072C199.19 406.468 199.736 407.032 200.132 407.764C200.528 408.484 200.726 409.318 200.726 410.266C200.726 410.326 200.72 410.392 200.708 410.464C200.708 410.524 200.708 410.59 200.708 410.662H192.482V409.708H200.024L199.52 410.086C199.52 409.402 199.37 408.796 199.07 408.268C198.782 407.728 198.386 407.308 197.882 407.008C197.378 406.708 196.796 406.558 196.136 406.558C195.488 406.558 194.906 406.708 194.39 407.008C193.874 407.308 193.472 407.728 193.184 408.268C192.896 408.808 192.752 409.426 192.752 410.122V410.32C192.752 411.04 192.908 411.676 193.22 412.228C193.544 412.768 193.988 413.194 194.552 413.506C195.128 413.806 195.782 413.956 196.514 413.956C197.09 413.956 197.624 413.854 198.116 413.65C198.62 413.446 199.052 413.134 199.412 412.714L200.132 413.542C199.712 414.046 199.184 414.43 198.548 414.694C197.924 414.958 197.234 415.09 196.478 415.09ZM208.151 405.46C208.919 405.46 209.591 405.61 210.167 405.91C210.755 406.198 211.211 406.642 211.535 407.242C211.871 407.842 212.039 408.598 212.039 409.51V415H210.761V409.636C210.761 408.64 210.509 407.89 210.005 407.386C209.513 406.87 208.817 406.612 207.917 406.612C207.245 406.612 206.657 406.75 206.153 407.026C205.661 407.29 205.277 407.68 205.001 408.196C204.737 408.7 204.605 409.312 204.605 410.032V415H203.327V405.55H204.551V408.142L204.353 407.656C204.653 406.972 205.133 406.438 205.793 406.054C206.453 405.658 207.239 405.46 208.151 405.46ZM219.505 415.09C218.521 415.09 217.657 414.886 216.913 414.478C216.169 414.058 215.587 413.488 215.167 412.768C214.747 412.036 214.537 411.202 214.537 410.266C214.537 409.33 214.735 408.502 215.131 407.782C215.539 407.062 216.091 406.498 216.787 406.09C217.495 405.67 218.287 405.46 219.163 405.46C220.051 405.46 220.837 405.664 221.521 406.072C222.217 406.468 222.763 407.032 223.159 407.764C223.555 408.484 223.753 409.318 223.753 410.266C223.753 410.326 223.747 410.392 223.735 410.464C223.735 410.524 223.735 410.59 223.735 410.662H215.509V409.708H223.051L222.547 410.086C222.547 409.402 222.397 408.796 222.097 408.268C221.809 407.728 221.413 407.308 220.909 407.008C220.405 406.708 219.823 406.558 219.163 406.558C218.515 406.558 217.933 406.708 217.417 407.008C216.901 407.308 216.499 407.728 216.211 408.268C215.923 408.808 215.779 409.426 215.779 410.122V410.32C215.779 411.04 215.935 411.676 216.247 412.228C216.571 412.768 217.015 413.194 217.579 413.506C218.155 413.806 218.809 413.956 219.541 413.956C220.117 413.956 220.651 413.854 221.143 413.65C221.647 413.446 222.079 413.134 222.439 412.714L223.159 413.542C222.739 414.046 222.211 414.43 221.575 414.694C220.951 414.958 220.261 415.09 219.505 415.09ZM230.26 415.09C229.456 415.09 228.754 414.94 228.154 414.64C227.554 414.34 227.086 413.89 226.75 413.29C226.426 412.69 226.264 411.94 226.264 411.04V405.55H227.542V410.896C227.542 411.904 227.788 412.666 228.28 413.182C228.784 413.686 229.486 413.938 230.386 413.938C231.046 413.938 231.616 413.806 232.096 413.542C232.588 413.266 232.96 412.87 233.212 412.354C233.476 411.838 233.608 411.22 233.608 410.5V405.55H234.886V415H233.662V412.408L233.86 412.876C233.56 413.572 233.092 414.118 232.456 414.514C231.832 414.898 231.1 415.09 230.26 415.09ZM238.448 415V405.55H239.672V408.124L239.546 407.674C239.81 406.954 240.254 406.408 240.878 406.036C241.502 405.652 242.276 405.46 243.2 405.46V406.702C243.152 406.702 243.104 406.702 243.056 406.702C243.008 406.69 242.96 406.684 242.912 406.684C241.916 406.684 241.136 406.99 240.572 407.602C240.008 408.202 239.726 409.06 239.726 410.176V415H238.448Z" fill="#404040"/>
<path d="M491.228 218.4L486.98 231H485.576L481.886 220.254L478.178 231H476.792L472.544 218.4H473.912L477.548 229.236L481.31 218.4H482.552L486.26 229.29L489.95 218.4H491.228ZM500.923 226.662H493.003C493.075 227.646 493.453 228.444 494.137 229.056C494.821 229.656 495.685 229.956 496.729 229.956C497.317 229.956 497.857 229.854 498.349 229.65C498.841 229.434 499.267 229.122 499.627 228.714L500.347 229.542C499.927 230.046 499.399 230.43 498.763 230.694C498.139 230.958 497.449 231.09 496.693 231.09C495.721 231.09 494.857 230.886 494.101 230.478C493.357 230.058 492.775 229.482 492.355 228.75C491.935 228.018 491.725 227.19 491.725 226.266C491.725 225.342 491.923 224.514 492.319 223.782C492.727 223.05 493.279 222.48 493.975 222.072C494.683 221.664 495.475 221.46 496.351 221.46C497.227 221.46 498.013 221.664 498.709 222.072C499.405 222.48 499.951 223.05 500.347 223.782C500.743 224.502 500.941 225.33 500.941 226.266L500.923 226.662ZM496.351 222.558C495.439 222.558 494.671 222.852 494.047 223.44C493.435 224.016 493.087 224.772 493.003 225.708H499.717C499.633 224.772 499.279 224.016 498.655 223.44C498.043 222.852 497.275 222.558 496.351 222.558ZM503.543 217.644H504.821V231H503.543V217.644ZM508.377 217.644H509.655V231H508.377V217.644ZM518.035 221.46C519.223 221.46 520.165 221.808 520.861 222.504C521.569 223.188 521.923 224.19 521.923 225.51V231H520.645V225.636C520.645 224.652 520.399 223.902 519.907 223.386C519.415 222.87 518.713 222.612 517.801 222.612C516.781 222.612 515.971 222.918 515.371 223.53C514.783 224.13 514.489 224.964 514.489 226.032V231H513.211V221.532H514.435V223.278C514.783 222.702 515.263 222.258 515.875 221.946C516.499 221.622 517.219 221.46 518.035 221.46ZM533.672 226.662H525.752C525.824 227.646 526.202 228.444 526.886 229.056C527.57 229.656 528.434 229.956 529.478 229.956C530.066 229.956 530.606 229.854 531.098 229.65C531.59 229.434 532.016 229.122 532.376 228.714L533.096 229.542C532.676 230.046 532.148 230.43 531.512 230.694C530.888 230.958 530.198 231.09 529.442 231.09C528.47 231.09 527.606 230.886 526.85 230.478C526.106 230.058 525.524 229.482 525.104 228.75C524.684 228.018 524.474 227.19 524.474 226.266C524.474 225.342 524.672 224.514 525.068 223.782C525.476 223.05 526.028 222.48 526.724 222.072C527.432 221.664 528.224 221.46 529.1 221.46C529.976 221.46 530.762 221.664 531.458 222.072C532.154 222.48 532.7 223.05 533.096 223.782C533.492 224.502 533.69 225.33 533.69 226.266L533.672 226.662ZM529.1 222.558C528.188 222.558 527.42 222.852 526.796 223.44C526.184 224.016 525.836 224.772 525.752 225.708H532.466C532.382 224.772 532.028 224.016 531.404 223.44C530.792 222.852 530.024 222.558 529.1 222.558ZM538.829 231.09C538.061 231.09 537.323 230.982 536.615 230.766C535.919 230.538 535.373 230.256 534.977 229.92L535.553 228.912C535.949 229.224 536.447 229.482 537.047 229.686C537.647 229.878 538.271 229.974 538.919 229.974C539.783 229.974 540.419 229.842 540.827 229.578C541.247 229.302 541.457 228.918 541.457 228.426C541.457 228.078 541.343 227.808 541.115 227.616C540.887 227.412 540.599 227.262 540.251 227.166C539.903 227.058 539.441 226.956 538.865 226.86C538.097 226.716 537.479 226.572 537.011 226.428C536.543 226.272 536.141 226.014 535.805 225.654C535.481 225.294 535.319 224.796 535.319 224.16C535.319 223.368 535.649 222.72 536.309 222.216C536.969 221.712 537.887 221.46 539.063 221.46C539.675 221.46 540.287 221.544 540.899 221.712C541.511 221.868 542.015 222.078 542.411 222.342L541.853 223.368C541.073 222.828 540.143 222.558 539.063 222.558C538.247 222.558 537.629 222.702 537.209 222.99C536.801 223.278 536.597 223.656 536.597 224.124C536.597 224.484 536.711 224.772 536.939 224.988C537.179 225.204 537.473 225.366 537.821 225.474C538.169 225.57 538.649 225.672 539.261 225.78C540.017 225.924 540.623 226.068 541.079 226.212C541.535 226.356 541.925 226.602 542.249 226.95C542.573 227.298 542.735 227.778 542.735 228.39C542.735 229.218 542.387 229.878 541.691 230.37C541.007 230.85 540.053 231.09 538.829 231.09ZM547.635 231.09C546.867 231.09 546.129 230.982 545.421 230.766C544.725 230.538 544.179 230.256 543.783 229.92L544.359 228.912C544.755 229.224 545.253 229.482 545.853 229.686C546.453 229.878 547.077 229.974 547.725 229.974C548.589 229.974 549.225 229.842 549.633 229.578C550.053 229.302 550.263 228.918 550.263 228.426C550.263 228.078 550.149 227.808 549.921 227.616C549.693 227.412 549.405 227.262 549.057 227.166C548.709 227.058 548.247 226.956 547.671 226.86C546.903 226.716 546.285 226.572 545.817 226.428C545.349 226.272 544.947 226.014 544.611 225.654C544.287 225.294 544.125 224.796 544.125 224.16C544.125 223.368 544.455 222.72 545.115 222.216C545.775 221.712 546.693 221.46 547.869 221.46C548.481 221.46 549.093 221.544 549.705 221.712C550.317 221.868 550.821 222.078 551.217 222.342L550.659 223.368C549.879 222.828 548.949 222.558 547.869 222.558C547.053 222.558 546.435 222.702 546.015 222.99C545.607 223.278 545.403 223.656 545.403 224.124C545.403 224.484 545.517 224.772 545.745 224.988C545.985 225.204 546.279 225.366 546.627 225.474C546.975 225.57 547.455 225.672 548.067 225.78C548.823 225.924 549.429 226.068 549.885 226.212C550.341 226.356 550.731 226.602 551.055 226.95C551.379 227.298 551.541 227.778 551.541 228.39C551.541 229.218 551.193 229.878 550.497 230.37C549.813 230.85 548.859 231.09 547.635 231.09Z" fill="#404040"/>
</svg>
