<svg width="675" height="553" viewBox="0 0 675 553" fill="none" xmlns="http://www.w3.org/2000/svg">
<path d="M404.429 5.6858C401.058 38.3403 395.974 70.8122 389.197 102.928C420.279 113.056 447.207 135.391 462.909 164.081C449.797 164.151 439.743 175.67 433.313 187.094C426.874 198.518 421.591 211.489 410.694 218.775C400.901 225.321 388.441 225.973 376.667 226.278C342.152 227.164 304.431 227.982 278.102 250.343C267.275 259.541 259.351 271.712 248.95 281.38C238.54 291.056 223.959 298.298 210.342 294.247C195.822 289.926 187.819 274.816 181.181 261.193C143.747 184.329 99.9782 109.952 44.001 45.3389C101.925 37.2449 153.592 14.7449 209.552 2.04303C227.026 -1.92142 405.003 0.199908 404.429 5.6858Z" fill="#F4EEE3"/>
<path d="M450.289 104.429C434.34 171.3 418.375 238.167 402.426 305.038C376.354 340.72 350.261 376.414 324.189 412.095C375.886 449.005 427.587 485.899 479.284 522.809C514.389 475.884 549.494 428.959 584.596 382.051C612.652 315.568 640.708 249.085 668.764 182.602C595.944 156.551 523.11 130.48 450.289 104.429Z" fill="#8D9984"/>
<path d="M361.284 143.387C366.192 176.855 369.339 210.581 370.708 244.379C404.337 246.596 436.919 262.063 459.883 286.718C446.8 290.121 439.673 304.178 436.133 317.23C432.593 330.281 430.608 344.571 421.557 354.616C413.431 363.646 401.141 367.466 389.446 370.755C355.172 380.41 317.674 390.819 297.034 419.837C288.541 431.774 283.713 445.939 275.763 458.249C267.819 470.553 255.07 481.499 240.436 480.913C224.833 480.283 212.994 467.235 202.911 455.315C119.021 455.315 100.521 519.413 82.1953 328.237C138.046 305.434 112.848 216.183 165.555 189.28C182.015 180.876 360.432 137.761 361.258 143.385L361.284 143.387Z" fill="#D0DFE4"/>
<path d="M263.542 50.108C262.594 50.108 261.718 49.952 260.914 49.64C260.11 49.316 259.414 48.866 258.826 48.29C258.238 47.714 257.776 47.036 257.44 46.256C257.116 45.476 256.954 44.624 256.954 43.7C256.954 42.776 257.116 41.924 257.44 41.144C257.776 40.364 258.238 39.686 258.826 39.11C259.426 38.534 260.128 38.09 260.932 37.778C261.736 37.454 262.612 37.292 263.56 37.292C264.472 37.292 265.33 37.448 266.134 37.76C266.938 38.06 267.616 38.516 268.168 39.128L267.322 39.974C266.806 39.446 266.236 39.068 265.612 38.84C264.988 38.6 264.316 38.48 263.596 38.48C262.84 38.48 262.138 38.612 261.49 38.876C260.842 39.128 260.278 39.494 259.798 39.974C259.318 40.442 258.94 40.994 258.664 41.63C258.4 42.254 258.268 42.944 258.268 43.7C258.268 44.456 258.4 45.152 258.664 45.788C258.94 46.412 259.318 46.964 259.798 47.444C260.278 47.912 260.842 48.278 261.49 48.542C262.138 48.794 262.84 48.92 263.596 48.92C264.316 48.92 264.988 48.8 265.612 48.56C266.236 48.32 266.806 47.936 267.322 47.408L268.168 48.254C267.616 48.866 266.938 49.328 266.134 49.64C265.33 49.952 264.466 50.108 263.542 50.108ZM274.167 50.09C273.255 50.09 272.433 49.886 271.701 49.478C270.981 49.058 270.411 48.488 269.991 47.768C269.571 47.036 269.361 46.202 269.361 45.266C269.361 44.318 269.571 43.484 269.991 42.764C270.411 42.044 270.981 41.48 271.701 41.072C272.421 40.664 273.243 40.46 274.167 40.46C275.103 40.46 275.931 40.664 276.651 41.072C277.383 41.48 277.953 42.044 278.361 42.764C278.781 43.484 278.991 44.318 278.991 45.266C278.991 46.202 278.781 47.036 278.361 47.768C277.953 48.488 277.383 49.058 276.651 49.478C275.919 49.886 275.091 50.09 274.167 50.09ZM274.167 48.956C274.851 48.956 275.457 48.806 275.985 48.506C276.513 48.194 276.927 47.762 277.227 47.21C277.539 46.646 277.695 45.998 277.695 45.266C277.695 44.522 277.539 43.874 277.227 43.322C276.927 42.77 276.513 42.344 275.985 42.044C275.457 41.732 274.857 41.576 274.185 41.576C273.513 41.576 272.913 41.732 272.385 42.044C271.857 42.344 271.437 42.77 271.125 43.322C270.813 43.874 270.657 44.522 270.657 45.266C270.657 45.998 270.813 46.646 271.125 47.21C271.437 47.762 271.857 48.194 272.385 48.506C272.913 48.806 273.507 48.956 274.167 48.956ZM293.408 40.46C294.176 40.46 294.842 40.61 295.406 40.91C295.982 41.198 296.426 41.642 296.738 42.242C297.062 42.842 297.224 43.598 297.224 44.51V50H295.946V44.636C295.946 43.64 295.706 42.89 295.226 42.386C294.758 41.87 294.092 41.612 293.228 41.612C292.58 41.612 292.016 41.75 291.536 42.026C291.068 42.29 290.702 42.68 290.438 43.196C290.186 43.7 290.06 44.312 290.06 45.032V50H288.782V44.636C288.782 43.64 288.542 42.89 288.062 42.386C287.582 41.87 286.91 41.612 286.046 41.612C285.41 41.612 284.852 41.75 284.372 42.026C283.892 42.29 283.52 42.68 283.256 43.196C283.004 43.7 282.878 44.312 282.878 45.032V50H281.6V40.55H282.824V43.106L282.626 42.656C282.914 41.972 283.376 41.438 284.012 41.054C284.66 40.658 285.422 40.46 286.298 40.46C287.222 40.46 288.008 40.694 288.656 41.162C289.304 41.618 289.724 42.308 289.916 43.232L289.412 43.034C289.688 42.266 290.174 41.648 290.87 41.18C291.578 40.7 292.424 40.46 293.408 40.46ZM312.498 40.46C313.266 40.46 313.932 40.61 314.496 40.91C315.072 41.198 315.516 41.642 315.828 42.242C316.152 42.842 316.314 43.598 316.314 44.51V50H315.036V44.636C315.036 43.64 314.796 42.89 314.316 42.386C313.848 41.87 313.182 41.612 312.318 41.612C311.67 41.612 311.106 41.75 310.626 42.026C310.158 42.29 309.792 42.68 309.528 43.196C309.276 43.7 309.15 44.312 309.15 45.032V50H307.872V44.636C307.872 43.64 307.632 42.89 307.152 42.386C306.672 41.87 306 41.612 305.136 41.612C304.5 41.612 303.942 41.75 303.462 42.026C302.982 42.29 302.61 42.68 302.346 43.196C302.094 43.7 301.968 44.312 301.968 45.032V50H300.69V40.55H301.914V43.106L301.716 42.656C302.004 41.972 302.466 41.438 303.102 41.054C303.75 40.658 304.512 40.46 305.388 40.46C306.312 40.46 307.098 40.694 307.746 41.162C308.394 41.618 308.814 42.308 309.006 43.232L308.502 43.034C308.778 42.266 309.264 41.648 309.96 41.18C310.668 40.7 311.514 40.46 312.498 40.46ZM323.686 50.09C322.882 50.09 322.18 49.94 321.58 49.64C320.98 49.34 320.512 48.89 320.176 48.29C319.852 47.69 319.69 46.94 319.69 46.04V40.55H320.968V45.896C320.968 46.904 321.214 47.666 321.706 48.182C322.21 48.686 322.912 48.938 323.812 48.938C324.472 48.938 325.042 48.806 325.522 48.542C326.014 48.266 326.386 47.87 326.638 47.354C326.902 46.838 327.034 46.22 327.034 45.5V40.55H328.312V50H327.088V47.408L327.286 47.876C326.986 48.572 326.518 49.118 325.882 49.514C325.258 49.898 324.526 50.09 323.686 50.09ZM336.698 40.46C337.466 40.46 338.138 40.61 338.714 40.91C339.302 41.198 339.758 41.642 340.082 42.242C340.418 42.842 340.586 43.598 340.586 44.51V50H339.308V44.636C339.308 43.64 339.056 42.89 338.552 42.386C338.06 41.87 337.364 41.612 336.464 41.612C335.792 41.612 335.204 41.75 334.7 42.026C334.208 42.29 333.824 42.68 333.548 43.196C333.284 43.7 333.152 44.312 333.152 45.032V50H331.874V40.55H333.098V43.142L332.9 42.656C333.2 41.972 333.68 41.438 334.34 41.054C335 40.658 335.786 40.46 336.698 40.46ZM344.038 50V40.55H345.316V50H344.038ZM344.686 38.462C344.422 38.462 344.2 38.372 344.02 38.192C343.84 38.012 343.75 37.796 343.75 37.544C343.75 37.292 343.84 37.082 344.02 36.914C344.2 36.734 344.422 36.644 344.686 36.644C344.95 36.644 345.172 36.728 345.352 36.896C345.532 37.064 345.622 37.274 345.622 37.526C345.622 37.79 345.532 38.012 345.352 38.192C345.184 38.372 344.962 38.462 344.686 38.462ZM351.86 50.09C350.972 50.09 350.288 49.85 349.808 49.37C349.328 48.89 349.088 48.212 349.088 47.336V38.462H350.366V47.264C350.366 47.816 350.504 48.242 350.78 48.542C351.068 48.842 351.476 48.992 352.004 48.992C352.568 48.992 353.036 48.83 353.408 48.506L353.858 49.424C353.606 49.652 353.3 49.82 352.94 49.928C352.592 50.036 352.232 50.09 351.86 50.09ZM347.396 41.612V40.55H353.246V41.612H347.396ZM356.081 53.582C355.637 53.582 355.211 53.51 354.803 53.366C354.407 53.222 354.065 53.006 353.777 52.718L354.371 51.764C354.611 51.992 354.869 52.166 355.145 52.286C355.433 52.418 355.751 52.484 356.099 52.484C356.519 52.484 356.879 52.364 357.179 52.124C357.491 51.896 357.785 51.488 358.061 50.9L358.673 49.514L358.817 49.316L362.705 40.55H363.965L359.231 51.134C358.967 51.746 358.673 52.232 358.349 52.592C358.037 52.952 357.695 53.204 357.323 53.348C356.951 53.504 356.537 53.582 356.081 53.582ZM358.601 50.27L354.245 40.55H355.577L359.429 49.226L358.601 50.27Z" fill="#404040"/>
<path d="M106.374 408.034H113.034V409.168H106.374V408.034ZM106.518 413.848H114.096V415H105.186V402.4H113.826V403.552H106.518V413.848ZM121.781 405.46C122.549 405.46 123.221 405.61 123.797 405.91C124.385 406.198 124.841 406.642 125.165 407.242C125.501 407.842 125.669 408.598 125.669 409.51V415H124.391V409.636C124.391 408.64 124.139 407.89 123.635 407.386C123.143 406.87 122.447 406.612 121.547 406.612C120.875 406.612 120.287 406.75 119.783 407.026C119.291 407.29 118.907 407.68 118.631 408.196C118.367 408.7 118.235 409.312 118.235 410.032V415H116.957V405.55H118.181V408.142L117.983 407.656C118.283 406.972 118.763 406.438 119.423 406.054C120.083 405.658 120.869 405.46 121.781 405.46ZM132.109 415.09C131.221 415.09 130.537 414.85 130.057 414.37C129.577 413.89 129.337 413.212 129.337 412.336V403.462H130.615V412.264C130.615 412.816 130.753 413.242 131.029 413.542C131.317 413.842 131.725 413.992 132.253 413.992C132.817 413.992 133.285 413.83 133.657 413.506L134.107 414.424C133.855 414.652 133.549 414.82 133.189 414.928C132.841 415.036 132.481 415.09 132.109 415.09ZM127.645 406.612V405.55H133.495V406.612H127.645ZM136.433 415V405.55H137.657V408.124L137.531 407.674C137.795 406.954 138.239 406.408 138.863 406.036C139.487 405.652 140.261 405.46 141.185 405.46V406.702C141.137 406.702 141.089 406.702 141.041 406.702C140.993 406.69 140.945 406.684 140.897 406.684C139.901 406.684 139.121 406.99 138.557 407.602C137.993 408.202 137.711 409.06 137.711 410.176V415H136.433ZM147.443 415.09C146.459 415.09 145.595 414.886 144.851 414.478C144.107 414.058 143.525 413.488 143.105 412.768C142.685 412.036 142.475 411.202 142.475 410.266C142.475 409.33 142.673 408.502 143.069 407.782C143.477 407.062 144.029 406.498 144.725 406.09C145.433 405.67 146.225 405.46 147.101 405.46C147.989 405.46 148.775 405.664 149.459 406.072C150.155 406.468 150.701 407.032 151.097 407.764C151.493 408.484 151.691 409.318 151.691 410.266C151.691 410.326 151.685 410.392 151.673 410.464C151.673 410.524 151.673 410.59 151.673 410.662H143.447V409.708H150.989L150.485 410.086C150.485 409.402 150.335 408.796 150.035 408.268C149.747 407.728 149.351 407.308 148.847 407.008C148.343 406.708 147.761 406.558 147.101 406.558C146.453 406.558 145.871 406.708 145.355 407.008C144.839 407.308 144.437 407.728 144.149 408.268C143.861 408.808 143.717 409.426 143.717 410.122V410.32C143.717 411.04 143.873 411.676 144.185 412.228C144.509 412.768 144.953 413.194 145.517 413.506C146.093 413.806 146.747 413.956 147.479 413.956C148.055 413.956 148.589 413.854 149.081 413.65C149.585 413.446 150.017 413.134 150.377 412.714L151.097 413.542C150.677 414.046 150.149 414.43 149.513 414.694C148.889 414.958 148.199 415.09 147.443 415.09ZM159.171 415.09C158.355 415.09 157.617 414.904 156.957 414.532C156.297 414.148 155.769 413.602 155.373 412.894C154.989 412.174 154.797 411.298 154.797 410.266C154.797 409.234 154.989 408.364 155.373 407.656C155.757 406.936 156.279 406.39 156.939 406.018C157.599 405.646 158.343 405.46 159.171 405.46C160.071 405.46 160.875 405.664 161.583 406.072C162.303 406.468 162.867 407.032 163.275 407.764C163.683 408.484 163.887 409.318 163.887 410.266C163.887 411.226 163.683 412.066 163.275 412.786C162.867 413.506 162.303 414.07 161.583 414.478C160.875 414.886 160.071 415.09 159.171 415.09ZM154.293 418.492V405.55H155.517V408.394L155.391 410.284L155.571 412.192V418.492H154.293ZM159.081 413.956C159.753 413.956 160.353 413.806 160.881 413.506C161.409 413.194 161.829 412.762 162.141 412.21C162.453 411.646 162.609 410.998 162.609 410.266C162.609 409.534 162.453 408.892 162.141 408.34C161.829 407.788 161.409 407.356 160.881 407.044C160.353 406.732 159.753 406.576 159.081 406.576C158.409 406.576 157.803 406.732 157.263 407.044C156.735 407.356 156.315 407.788 156.003 408.34C155.703 408.892 155.553 409.534 155.553 410.266C155.553 410.998 155.703 411.646 156.003 412.21C156.315 412.762 156.735 413.194 157.263 413.506C157.803 413.806 158.409 413.956 159.081 413.956ZM166.492 415V405.55H167.716V408.124L167.59 407.674C167.854 406.954 168.298 406.408 168.922 406.036C169.546 405.652 170.32 405.46 171.244 405.46V406.702C171.196 406.702 171.148 406.702 171.1 406.702C171.052 406.69 171.004 406.684 170.956 406.684C169.96 406.684 169.18 406.99 168.616 407.602C168.052 408.202 167.77 409.06 167.77 410.176V415H166.492ZM177.502 415.09C176.518 415.09 175.654 414.886 174.91 414.478C174.166 414.058 173.584 413.488 173.164 412.768C172.744 412.036 172.534 411.202 172.534 410.266C172.534 409.33 172.732 408.502 173.128 407.782C173.536 407.062 174.088 406.498 174.784 406.09C175.492 405.67 176.284 405.46 177.16 405.46C178.048 405.46 178.834 405.664 179.518 406.072C180.214 406.468 180.76 407.032 181.156 407.764C181.552 408.484 181.75 409.318 181.75 410.266C181.75 410.326 181.744 410.392 181.732 410.464C181.732 410.524 181.732 410.59 181.732 410.662H173.506V409.708H181.048L180.544 410.086C180.544 409.402 180.394 408.796 180.094 408.268C179.806 407.728 179.41 407.308 178.906 407.008C178.402 406.708 177.82 406.558 177.16 406.558C176.512 406.558 175.93 406.708 175.414 407.008C174.898 407.308 174.496 407.728 174.208 408.268C173.92 408.808 173.776 409.426 173.776 410.122V410.32C173.776 411.04 173.932 411.676 174.244 412.228C174.568 412.768 175.012 413.194 175.576 413.506C176.152 413.806 176.806 413.956 177.538 413.956C178.114 413.956 178.648 413.854 179.14 413.65C179.644 413.446 180.076 413.134 180.436 412.714L181.156 413.542C180.736 414.046 180.208 414.43 179.572 414.694C178.948 414.958 178.258 415.09 177.502 415.09ZM189.175 405.46C189.943 405.46 190.615 405.61 191.191 405.91C191.779 406.198 192.235 406.642 192.559 407.242C192.895 407.842 193.063 408.598 193.063 409.51V415H191.785V409.636C191.785 408.64 191.533 407.89 191.029 407.386C190.537 406.87 189.841 406.612 188.941 406.612C188.269 406.612 187.681 406.75 187.177 407.026C186.685 407.29 186.301 407.68 186.025 408.196C185.761 408.7 185.629 409.312 185.629 410.032V415H184.351V405.55H185.575V408.142L185.377 407.656C185.677 406.972 186.157 406.438 186.817 406.054C187.477 405.658 188.263 405.46 189.175 405.46ZM200.529 415.09C199.545 415.09 198.681 414.886 197.937 414.478C197.193 414.058 196.611 413.488 196.191 412.768C195.771 412.036 195.561 411.202 195.561 410.266C195.561 409.33 195.759 408.502 196.155 407.782C196.563 407.062 197.115 406.498 197.811 406.09C198.519 405.67 199.311 405.46 200.187 405.46C201.075 405.46 201.861 405.664 202.545 406.072C203.241 406.468 203.787 407.032 204.183 407.764C204.579 408.484 204.777 409.318 204.777 410.266C204.777 410.326 204.771 410.392 204.759 410.464C204.759 410.524 204.759 410.59 204.759 410.662H196.533V409.708H204.075L203.571 410.086C203.571 409.402 203.421 408.796 203.121 408.268C202.833 407.728 202.437 407.308 201.933 407.008C201.429 406.708 200.847 406.558 200.187 406.558C199.539 406.558 198.957 406.708 198.441 407.008C197.925 407.308 197.523 407.728 197.235 408.268C196.947 408.808 196.803 409.426 196.803 410.122V410.32C196.803 411.04 196.959 411.676 197.271 412.228C197.595 412.768 198.039 413.194 198.603 413.506C199.179 413.806 199.833 413.956 200.565 413.956C201.141 413.956 201.675 413.854 202.167 413.65C202.671 413.446 203.103 413.134 203.463 412.714L204.183 413.542C203.763 414.046 203.235 414.43 202.599 414.694C201.975 414.958 201.285 415.09 200.529 415.09ZM211.285 415.09C210.481 415.09 209.779 414.94 209.179 414.64C208.579 414.34 208.111 413.89 207.775 413.29C207.451 412.69 207.289 411.94 207.289 411.04V405.55H208.567V410.896C208.567 411.904 208.813 412.666 209.305 413.182C209.809 413.686 210.511 413.938 211.411 413.938C212.071 413.938 212.641 413.806 213.121 413.542C213.613 413.266 213.985 412.87 214.237 412.354C214.501 411.838 214.633 411.22 214.633 410.5V405.55H215.911V415H214.687V412.408L214.885 412.876C214.585 413.572 214.117 414.118 213.481 414.514C212.857 414.898 212.125 415.09 211.285 415.09ZM219.472 415V405.55H220.696V408.124L220.57 407.674C220.834 406.954 221.278 406.408 221.902 406.036C222.526 405.652 223.3 405.46 224.224 405.46V406.702C224.176 406.702 224.128 406.702 224.08 406.702C224.032 406.69 223.984 406.684 223.936 406.684C222.94 406.684 222.16 406.99 221.596 407.602C221.032 408.202 220.75 409.06 220.75 410.176V415H219.472ZM229.2 415.09C228.42 415.09 227.682 414.982 226.986 414.766C226.29 414.538 225.744 414.256 225.348 413.92L225.924 412.912C226.308 413.2 226.8 413.452 227.4 413.668C228 413.872 228.63 413.974 229.29 413.974C230.19 413.974 230.838 413.836 231.234 413.56C231.63 413.272 231.828 412.894 231.828 412.426C231.828 412.078 231.714 411.808 231.486 411.616C231.27 411.412 230.982 411.262 230.622 411.166C230.262 411.058 229.86 410.968 229.416 410.896C228.972 410.824 228.528 410.74 228.084 410.644C227.652 410.548 227.256 410.41 226.896 410.23C226.536 410.038 226.242 409.78 226.014 409.456C225.798 409.132 225.69 408.7 225.69 408.16C225.69 407.644 225.834 407.182 226.122 406.774C226.41 406.366 226.83 406.048 227.382 405.82C227.946 405.58 228.63 405.46 229.434 405.46C230.046 405.46 230.658 405.544 231.27 405.712C231.882 405.868 232.386 406.078 232.782 406.342L232.224 407.368C231.804 407.08 231.354 406.876 230.874 406.756C230.394 406.624 229.914 406.558 229.434 406.558C228.582 406.558 227.952 406.708 227.544 407.008C227.148 407.296 226.95 407.668 226.95 408.124C226.95 408.484 227.058 408.766 227.274 408.97C227.502 409.174 227.796 409.336 228.156 409.456C228.528 409.564 228.93 409.654 229.362 409.726C229.806 409.798 230.244 409.888 230.676 409.996C231.12 410.092 231.522 410.23 231.882 410.41C232.254 410.578 232.548 410.824 232.764 411.148C232.992 411.46 233.106 411.874 233.106 412.39C233.106 412.942 232.95 413.422 232.638 413.83C232.338 414.226 231.894 414.538 231.306 414.766C230.73 414.982 230.028 415.09 229.2 415.09ZM240.275 405.46C241.043 405.46 241.715 405.61 242.291 405.91C242.879 406.198 243.335 406.642 243.659 407.242C243.995 407.842 244.163 408.598 244.163 409.51V415H242.885V409.636C242.885 408.64 242.633 407.89 242.129 407.386C241.637 406.87 240.941 406.612 240.041 406.612C239.369 406.612 238.781 406.75 238.277 407.026C237.785 407.29 237.401 407.68 237.125 408.196C236.861 408.7 236.729 409.312 236.729 410.032V415H235.451V401.644H236.729V408.142L236.477 407.656C236.777 406.972 237.257 406.438 237.917 406.054C238.577 405.658 239.363 405.46 240.275 405.46ZM247.615 415V405.55H248.893V415H247.615ZM248.263 403.462C247.999 403.462 247.777 403.372 247.597 403.192C247.417 403.012 247.327 402.796 247.327 402.544C247.327 402.292 247.417 402.082 247.597 401.914C247.777 401.734 247.999 401.644 248.263 401.644C248.527 401.644 248.749 401.728 248.929 401.896C249.109 402.064 249.199 402.274 249.199 402.526C249.199 402.79 249.109 403.012 248.929 403.192C248.761 403.372 248.539 403.462 248.263 403.462ZM257.327 415.09C256.511 415.09 255.773 414.904 255.113 414.532C254.453 414.148 253.925 413.602 253.529 412.894C253.145 412.174 252.953 411.298 252.953 410.266C252.953 409.234 253.145 408.364 253.529 407.656C253.913 406.936 254.435 406.39 255.095 406.018C255.755 405.646 256.499 405.46 257.327 405.46C258.227 405.46 259.031 405.664 259.739 406.072C260.459 406.468 261.023 407.032 261.431 407.764C261.839 408.484 262.043 409.318 262.043 410.266C262.043 411.226 261.839 412.066 261.431 412.786C261.023 413.506 260.459 414.07 259.739 414.478C259.031 414.886 258.227 415.09 257.327 415.09ZM252.449 418.492V405.55H253.673V408.394L253.547 410.284L253.727 412.192V418.492H252.449ZM257.237 413.956C257.909 413.956 258.509 413.806 259.037 413.506C259.565 413.194 259.985 412.762 260.297 412.21C260.609 411.646 260.765 410.998 260.765 410.266C260.765 409.534 260.609 408.892 260.297 408.34C259.985 407.788 259.565 407.356 259.037 407.044C258.509 406.732 257.909 406.576 257.237 406.576C256.565 406.576 255.959 406.732 255.419 407.044C254.891 407.356 254.471 407.788 254.159 408.34C253.859 408.892 253.709 409.534 253.709 410.266C253.709 410.998 253.859 411.646 254.159 412.21C254.471 412.762 254.891 413.194 255.419 413.506C255.959 413.806 256.565 413.956 257.237 413.956Z" fill="#404040"/>
<path d="M491.228 218.4L486.98 231H485.576L481.886 220.254L478.178 231H476.792L472.544 218.4H473.912L477.548 229.236L481.31 218.4H482.552L486.26 229.29L489.95 218.4H491.228ZM500.923 226.662H493.003C493.075 227.646 493.453 228.444 494.137 229.056C494.821 229.656 495.685 229.956 496.729 229.956C497.317 229.956 497.857 229.854 498.349 229.65C498.841 229.434 499.267 229.122 499.627 228.714L500.347 229.542C499.927 230.046 499.399 230.43 498.763 230.694C498.139 230.958 497.449 231.09 496.693 231.09C495.721 231.09 494.857 230.886 494.101 230.478C493.357 230.058 492.775 229.482 492.355 228.75C491.935 228.018 491.725 227.19 491.725 226.266C491.725 225.342 491.923 224.514 492.319 223.782C492.727 223.05 493.279 222.48 493.975 222.072C494.683 221.664 495.475 221.46 496.351 221.46C497.227 221.46 498.013 221.664 498.709 222.072C499.405 222.48 499.951 223.05 500.347 223.782C500.743 224.502 500.941 225.33 500.941 226.266L500.923 226.662ZM496.351 222.558C495.439 222.558 494.671 222.852 494.047 223.44C493.435 224.016 493.087 224.772 493.003 225.708H499.717C499.633 224.772 499.279 224.016 498.655 223.44C498.043 222.852 497.275 222.558 496.351 222.558ZM503.543 217.644H504.821V231H503.543V217.644ZM508.377 217.644H509.655V231H508.377V217.644ZM518.035 221.46C519.223 221.46 520.165 221.808 520.861 222.504C521.569 223.188 521.923 224.19 521.923 225.51V231H520.645V225.636C520.645 224.652 520.399 223.902 519.907 223.386C519.415 222.87 518.713 222.612 517.801 222.612C516.781 222.612 515.971 222.918 515.371 223.53C514.783 224.13 514.489 224.964 514.489 226.032V231H513.211V221.532H514.435V223.278C514.783 222.702 515.263 222.258 515.875 221.946C516.499 221.622 517.219 221.46 518.035 221.46ZM533.672 226.662H525.752C525.824 227.646 526.202 228.444 526.886 229.056C527.57 229.656 528.434 229.956 529.478 229.956C530.066 229.956 530.606 229.854 531.098 229.65C531.59 229.434 532.016 229.122 532.376 228.714L533.096 229.542C532.676 230.046 532.148 230.43 531.512 230.694C530.888 230.958 530.198 231.09 529.442 231.09C528.47 231.09 527.606 230.886 526.85 230.478C526.106 230.058 525.524 229.482 525.104 228.75C524.684 228.018 524.474 227.19 524.474 226.266C524.474 225.342 524.672 224.514 525.068 223.782C525.476 223.05 526.028 222.48 526.724 222.072C527.432 221.664 528.224 221.46 529.1 221.46C529.976 221.46 530.762 221.664 531.458 222.072C532.154 222.48 532.7 223.05 533.096 223.782C533.492 224.502 533.69 225.33 533.69 226.266L533.672 226.662ZM529.1 222.558C528.188 222.558 527.42 222.852 526.796 223.44C526.184 224.016 525.836 224.772 525.752 225.708H532.466C532.382 224.772 532.028 224.016 531.404 223.44C530.792 222.852 530.024 222.558 529.1 222.558ZM538.829 231.09C538.061 231.09 537.323 230.982 536.615 230.766C535.919 230.538 535.373 230.256 534.977 229.92L535.553 228.912C535.949 229.224 536.447 229.482 537.047 229.686C537.647 229.878 538.271 229.974 538.919 229.974C539.783 229.974 540.419 229.842 540.827 229.578C541.247 229.302 541.457 228.918 541.457 228.426C541.457 228.078 541.343 227.808 541.115 227.616C540.887 227.412 540.599 227.262 540.251 227.166C539.903 227.058 539.441 226.956 538.865 226.86C538.097 226.716 537.479 226.572 537.011 226.428C536.543 226.272 536.141 226.014 535.805 225.654C535.481 225.294 535.319 224.796 535.319 224.16C535.319 223.368 535.649 222.72 536.309 222.216C536.969 221.712 537.887 221.46 539.063 221.46C539.675 221.46 540.287 221.544 540.899 221.712C541.511 221.868 542.015 222.078 542.411 222.342L541.853 223.368C541.073 222.828 540.143 222.558 539.063 222.558C538.247 222.558 537.629 222.702 537.209 222.99C536.801 223.278 536.597 223.656 536.597 224.124C536.597 224.484 536.711 224.772 536.939 224.988C537.179 225.204 537.473 225.366 537.821 225.474C538.169 225.57 538.649 225.672 539.261 225.78C540.017 225.924 540.623 226.068 541.079 226.212C541.535 226.356 541.925 226.602 542.249 226.95C542.573 227.298 542.735 227.778 542.735 228.39C542.735 229.218 542.387 229.878 541.691 230.37C541.007 230.85 540.053 231.09 538.829 231.09ZM547.635 231.09C546.867 231.09 546.129 230.982 545.421 230.766C544.725 230.538 544.179 230.256 543.783 229.92L544.359 228.912C544.755 229.224 545.253 229.482 545.853 229.686C546.453 229.878 547.077 229.974 547.725 229.974C548.589 229.974 549.225 229.842 549.633 229.578C550.053 229.302 550.263 228.918 550.263 228.426C550.263 228.078 550.149 227.808 549.921 227.616C549.693 227.412 549.405 227.262 549.057 227.166C548.709 227.058 548.247 226.956 547.671 226.86C546.903 226.716 546.285 226.572 545.817 226.428C545.349 226.272 544.947 226.014 544.611 225.654C544.287 225.294 544.125 224.796 544.125 224.16C544.125 223.368 544.455 222.72 545.115 222.216C545.775 221.712 546.693 221.46 547.869 221.46C548.481 221.46 549.093 221.544 549.705 221.712C550.317 221.868 550.821 222.078 551.217 222.342L550.659 223.368C549.879 222.828 548.949 222.558 547.869 222.558C547.053 222.558 546.435 222.702 546.015 222.99C545.607 223.278 545.403 223.656 545.403 224.124C545.403 224.484 545.517 224.772 545.745 224.988C545.985 225.204 546.279 225.366 546.627 225.474C546.975 225.57 547.455 225.672 548.067 225.78C548.823 225.924 549.429 226.068 549.885 226.212C550.341 226.356 550.731 226.602 551.055 226.95C551.379 227.298 551.541 227.778 551.541 228.39C551.541 229.218 551.193 229.878 550.497 230.37C549.813 230.85 548.859 231.09 547.635 231.09Z" fill="#404040"/>
</svg>
