<svg width="402" height="486" viewBox="0 0 402 486" fill="none" xmlns="http://www.w3.org/2000/svg">
<path d="M234.453 6.73075C232.085 45.3866 228.514 83.8263 223.753 121.844C245.586 133.834 264.502 160.274 275.531 194.236C266.321 194.319 259.259 207.955 254.742 221.479C250.219 235.002 246.508 250.357 238.854 258.982C231.975 266.731 223.222 267.503 214.952 267.864C190.708 268.913 164.211 269.881 145.717 296.351C138.112 307.24 132.545 321.648 125.239 333.093C117.927 344.547 107.684 353.121 98.1199 348.325C87.9205 343.21 82.299 325.322 77.6357 309.195C51.3408 218.206 39.3203 165.488 0 89L0.000114679 48.06C33.3448 36.0724 64.3802 15.1123 97.5645 2.4185C109.839 -2.27454 234.856 0.236647 234.453 6.73075Z" fill="#F4EEE3"/>
<path d="M254.289 75.0133C243.831 136.328 233.36 197.64 222.901 258.954C204.872 293.285 186.829 327.63 168.8 361.96C205.911 390.241 243.025 418.507 280.136 446.788C304.425 401.564 328.715 356.34 353.001 311.13C372.047 249.05 382.954 216.08 402 154V122.286C352.765 106.533 303.523 90.7652 254.289 75.0133Z" fill="#8D9984"/>
<path d="M224.846 247.992C228.294 271.501 230.505 295.191 231.466 318.932C255.088 320.489 277.976 331.354 294.106 348.672C284.916 351.063 279.91 360.937 277.423 370.105C274.936 379.272 273.542 389.31 267.184 396.366C261.476 402.709 252.844 405.393 244.629 407.703C220.553 414.484 194.213 421.796 179.715 442.18C173.749 450.565 170.358 460.515 164.773 469.161C159.194 477.804 150.238 485.493 139.959 485.081C128.999 484.639 120.683 475.474 113.6 467.1C54.6728 467.1 41.6778 512.125 28.8052 377.837C68.0368 361.819 50.3365 299.126 87.3599 280.228C98.9217 274.325 224.248 244.04 224.829 247.991L224.846 247.992Z" fill="#D0DFE4"/>
<path d="M304.284 149.678L301.3 140.827H302.261L305.055 149.159H304.575L307.457 140.827H308.317L311.162 149.159H310.707L313.526 140.827H314.424L311.44 149.678H310.454L307.736 141.775H307.988L305.257 149.678H304.284ZM318.263 149.741C317.572 149.741 316.965 149.598 316.443 149.311C315.92 149.016 315.511 148.616 315.216 148.11C314.921 147.596 314.774 147.01 314.774 146.352C314.774 145.695 314.913 145.113 315.191 144.608C315.477 144.102 315.865 143.706 316.354 143.419C316.851 143.124 317.408 142.977 318.023 142.977C318.647 142.977 319.199 143.12 319.679 143.406C320.168 143.685 320.552 144.081 320.83 144.595C321.108 145.101 321.247 145.687 321.247 146.352C321.247 146.395 321.243 146.441 321.235 146.491C321.235 146.534 321.235 146.58 321.235 146.631H315.456V145.96H320.754L320.4 146.226C320.4 145.746 320.295 145.32 320.084 144.949C319.882 144.57 319.604 144.275 319.249 144.064C318.895 143.853 318.487 143.748 318.023 143.748C317.568 143.748 317.159 143.853 316.797 144.064C316.434 144.275 316.152 144.57 315.949 144.949C315.747 145.328 315.646 145.762 315.646 146.251V146.39C315.646 146.896 315.756 147.343 315.975 147.731C316.202 148.11 316.514 148.409 316.91 148.628C317.315 148.839 317.774 148.944 318.289 148.944C318.693 148.944 319.068 148.873 319.414 148.729C319.768 148.586 320.071 148.367 320.324 148.072L320.83 148.654C320.535 149.008 320.164 149.277 319.717 149.463C319.279 149.648 318.794 149.741 318.263 149.741ZM323.074 149.678V140.296H323.972V149.678H323.074ZM326.47 149.678V140.296H327.368V149.678H326.47ZM333.254 142.977C333.794 142.977 334.266 143.082 334.67 143.293C335.083 143.495 335.404 143.807 335.631 144.228C335.867 144.65 335.985 145.181 335.985 145.821V149.678H335.087V145.91C335.087 145.21 334.91 144.683 334.556 144.329C334.211 143.967 333.722 143.786 333.09 143.786C332.618 143.786 332.205 143.883 331.851 144.077C331.505 144.262 331.235 144.536 331.041 144.898C330.856 145.252 330.763 145.682 330.763 146.188V149.678H329.866V143.04H330.725V144.86L330.586 144.519C330.797 144.039 331.134 143.663 331.598 143.394C332.061 143.116 332.613 142.977 333.254 142.977ZM341.23 149.741C340.538 149.741 339.931 149.598 339.409 149.311C338.886 149.016 338.477 148.616 338.182 148.11C337.887 147.596 337.74 147.01 337.74 146.352C337.74 145.695 337.879 145.113 338.157 144.608C338.444 144.102 338.831 143.706 339.32 143.419C339.818 143.124 340.374 142.977 340.989 142.977C341.613 142.977 342.165 143.12 342.646 143.406C343.135 143.685 343.518 144.081 343.796 144.595C344.074 145.101 344.214 145.687 344.214 146.352C344.214 146.395 344.209 146.441 344.201 146.491C344.201 146.534 344.201 146.58 344.201 146.631H338.423V145.96H343.72L343.366 146.226C343.366 145.746 343.261 145.32 343.05 144.949C342.848 144.57 342.57 144.275 342.216 144.064C341.862 143.853 341.453 143.748 340.989 143.748C340.534 143.748 340.125 143.853 339.763 144.064C339.4 144.275 339.118 144.57 338.916 144.949C338.713 145.328 338.612 145.762 338.612 146.251V146.39C338.612 146.896 338.722 147.343 338.941 147.731C339.169 148.11 339.481 148.409 339.877 148.628C340.281 148.839 340.741 148.944 341.255 148.944C341.659 148.944 342.035 148.873 342.38 148.729C342.734 148.586 343.038 148.367 343.291 148.072L343.796 148.654C343.501 149.008 343.13 149.277 342.684 149.463C342.245 149.648 341.761 149.741 341.23 149.741ZM347.824 149.741C347.276 149.741 346.757 149.665 346.268 149.513C345.779 149.353 345.396 149.155 345.118 148.919L345.522 148.211C345.792 148.413 346.138 148.59 346.559 148.742C346.981 148.885 347.423 148.957 347.887 148.957C348.519 148.957 348.974 148.86 349.252 148.666C349.53 148.464 349.67 148.198 349.67 147.87C349.67 147.625 349.589 147.436 349.429 147.301C349.278 147.157 349.075 147.052 348.822 146.985C348.57 146.909 348.287 146.846 347.975 146.795C347.663 146.744 347.351 146.685 347.04 146.618C346.736 146.55 346.458 146.454 346.205 146.327C345.952 146.192 345.746 146.011 345.586 145.783C345.434 145.556 345.358 145.252 345.358 144.873C345.358 144.511 345.459 144.186 345.661 143.9C345.864 143.613 346.159 143.39 346.547 143.229C346.943 143.061 347.423 142.977 347.988 142.977C348.418 142.977 348.848 143.036 349.278 143.154C349.707 143.263 350.061 143.411 350.34 143.596L349.948 144.317C349.653 144.114 349.337 143.971 348.999 143.887C348.662 143.794 348.325 143.748 347.988 143.748C347.389 143.748 346.947 143.853 346.66 144.064C346.382 144.266 346.243 144.527 346.243 144.848C346.243 145.101 346.319 145.299 346.471 145.442C346.631 145.585 346.837 145.699 347.09 145.783C347.351 145.859 347.634 145.923 347.937 145.973C348.249 146.024 348.557 146.087 348.86 146.163C349.172 146.23 349.455 146.327 349.707 146.454C349.969 146.572 350.175 146.744 350.327 146.972C350.487 147.191 350.567 147.482 350.567 147.844C350.567 148.232 350.458 148.569 350.238 148.856C350.028 149.134 349.716 149.353 349.303 149.513C348.898 149.665 348.405 149.741 347.824 149.741ZM353.997 149.741C353.449 149.741 352.931 149.665 352.442 149.513C351.953 149.353 351.57 149.155 351.291 148.919L351.696 148.211C351.966 148.413 352.311 148.59 352.733 148.742C353.154 148.885 353.597 148.957 354.06 148.957C354.693 148.957 355.148 148.86 355.426 148.666C355.704 148.464 355.843 148.198 355.843 147.87C355.843 147.625 355.763 147.436 355.603 147.301C355.451 147.157 355.249 147.052 354.996 146.985C354.743 146.909 354.461 146.846 354.149 146.795C353.837 146.744 353.525 146.685 353.213 146.618C352.91 146.55 352.632 146.454 352.379 146.327C352.126 146.192 351.919 146.011 351.759 145.783C351.608 145.556 351.532 145.252 351.532 144.873C351.532 144.511 351.633 144.186 351.835 143.9C352.037 143.613 352.332 143.39 352.72 143.229C353.116 143.061 353.597 142.977 354.162 142.977C354.592 142.977 355.021 143.036 355.451 143.154C355.881 143.263 356.235 143.411 356.513 143.596L356.121 144.317C355.826 144.114 355.51 143.971 355.173 143.887C354.836 143.794 354.499 143.748 354.162 143.748C353.563 143.748 353.121 143.853 352.834 144.064C352.556 144.266 352.417 144.527 352.417 144.848C352.417 145.101 352.493 145.299 352.644 145.442C352.805 145.585 353.011 145.699 353.264 145.783C353.525 145.859 353.808 145.923 354.111 145.973C354.423 146.024 354.731 146.087 355.034 146.163C355.346 146.23 355.628 146.327 355.881 146.454C356.143 146.572 356.349 146.744 356.501 146.972C356.661 147.191 356.741 147.482 356.741 147.844C356.741 148.232 356.631 148.569 356.412 148.856C356.202 149.134 355.89 149.353 355.477 149.513C355.072 149.665 354.579 149.741 353.997 149.741Z" fill="#404040"/>
<path d="M73.9494 410.942H78.6276V411.739H73.9494V410.942ZM74.0506 415.026H79.3736V415.836H73.1149V406.985H79.184V407.794H74.0506V415.026ZM84.7718 409.134C85.3113 409.134 85.7833 409.24 86.188 409.45C86.601 409.653 86.9213 409.965 87.1489 410.386C87.3849 410.808 87.5029 411.339 87.5029 411.979V415.836H86.6052V412.068C86.6052 411.368 86.4282 410.841 86.0742 410.487C85.7286 410.125 85.2397 409.944 84.6075 409.944C84.1354 409.944 83.7224 410.04 83.3684 410.234C83.0228 410.42 82.753 410.694 82.5592 411.056C82.3737 411.41 82.281 411.84 82.281 412.346V415.836H81.3833V409.198H82.2431V411.018L82.104 410.677C82.3147 410.196 82.6519 409.821 83.1155 409.552C83.5791 409.273 84.1312 409.134 84.7718 409.134ZM92.0266 415.899C91.4029 415.899 90.9224 415.73 90.5852 415.393C90.2481 415.056 90.0795 414.58 90.0795 413.964V407.731H90.9772V413.914C90.9772 414.301 91.0741 414.601 91.268 414.811C91.4703 415.022 91.7569 415.127 92.1278 415.127C92.524 415.127 92.8527 415.014 93.114 414.786L93.4301 415.431C93.2531 415.591 93.0381 415.709 92.7853 415.785C92.5408 415.861 92.2879 415.899 92.0266 415.899ZM88.891 409.944V409.198H93.0002V409.944H88.891ZM95.0643 415.836V409.198H95.9241V411.006L95.8356 410.69C96.021 410.184 96.3329 409.8 96.7712 409.539C97.2095 409.269 97.7532 409.134 98.4023 409.134V410.007C98.3686 410.007 98.3348 410.007 98.3011 410.007C98.2674 409.998 98.2337 409.994 98.2 409.994C97.5003 409.994 96.9524 410.209 96.5563 410.639C96.1601 411.06 95.962 411.663 95.962 412.447V415.836H95.0643ZM102.798 415.899C102.107 415.899 101.5 415.755 100.977 415.469C100.455 415.174 100.046 414.773 99.751 414.268C99.456 413.754 99.3085 413.168 99.3085 412.51C99.3085 411.853 99.4476 411.271 99.7257 410.765C100.012 410.26 100.4 409.863 100.889 409.577C101.386 409.282 101.943 409.134 102.558 409.134C103.182 409.134 103.734 409.278 104.214 409.564C104.703 409.842 105.087 410.239 105.365 410.753C105.643 411.258 105.782 411.844 105.782 412.51C105.782 412.552 105.778 412.599 105.769 412.649C105.769 412.691 105.769 412.738 105.769 412.788H99.9912V412.118H105.289L104.935 412.384C104.935 411.903 104.83 411.478 104.619 411.107C104.417 410.727 104.138 410.432 103.784 410.222C103.43 410.011 103.022 409.906 102.558 409.906C102.103 409.906 101.694 410.011 101.331 410.222C100.969 410.432 100.687 410.727 100.484 411.107C100.282 411.486 100.181 411.92 100.181 412.409V412.548C100.181 413.054 100.29 413.501 100.51 413.888C100.737 414.268 101.049 414.567 101.445 414.786C101.85 414.997 102.309 415.102 102.823 415.102C103.228 415.102 103.603 415.031 103.949 414.887C104.303 414.744 104.606 414.525 104.859 414.23L105.365 414.811C105.07 415.165 104.699 415.435 104.252 415.621C103.814 415.806 103.329 415.899 102.798 415.899ZM111.036 415.899C110.463 415.899 109.944 415.768 109.481 415.507C109.017 415.237 108.646 414.854 108.368 414.356C108.098 413.85 107.963 413.235 107.963 412.51C107.963 411.785 108.098 411.174 108.368 410.677C108.638 410.171 109.004 409.788 109.468 409.526C109.932 409.265 110.454 409.134 111.036 409.134C111.668 409.134 112.233 409.278 112.73 409.564C113.236 409.842 113.632 410.239 113.919 410.753C114.205 411.258 114.348 411.844 114.348 412.51C114.348 413.185 114.205 413.775 113.919 414.28C113.632 414.786 113.236 415.182 112.73 415.469C112.233 415.755 111.668 415.899 111.036 415.899ZM107.609 418.288V409.198H108.469V411.195L108.381 412.523L108.507 413.863V418.288H107.609ZM110.973 415.102C111.445 415.102 111.866 414.997 112.237 414.786C112.608 414.567 112.903 414.263 113.122 413.876C113.341 413.48 113.451 413.024 113.451 412.51C113.451 411.996 113.341 411.545 113.122 411.157C112.903 410.77 112.608 410.466 112.237 410.247C111.866 410.028 111.445 409.918 110.973 409.918C110.501 409.918 110.075 410.028 109.696 410.247C109.325 410.466 109.03 410.77 108.81 411.157C108.6 411.545 108.494 411.996 108.494 412.51C108.494 413.024 108.6 413.48 108.81 413.876C109.03 414.263 109.325 414.567 109.696 414.786C110.075 414.997 110.501 415.102 110.973 415.102ZM116.178 415.836V409.198H117.038V411.006L116.95 410.69C117.135 410.184 117.447 409.8 117.885 409.539C118.324 409.269 118.867 409.134 119.516 409.134V410.007C119.483 410.007 119.449 410.007 119.415 410.007C119.382 409.998 119.348 409.994 119.314 409.994C118.615 409.994 118.067 410.209 117.67 410.639C117.274 411.06 117.076 411.663 117.076 412.447V415.836H116.178ZM123.912 415.899C123.221 415.899 122.614 415.755 122.092 415.469C121.569 415.174 121.16 414.773 120.865 414.268C120.57 413.754 120.423 413.168 120.423 412.51C120.423 411.853 120.562 411.271 120.84 410.765C121.126 410.26 121.514 409.863 122.003 409.577C122.5 409.282 123.057 409.134 123.672 409.134C124.296 409.134 124.848 409.278 125.328 409.564C125.817 409.842 126.201 410.239 126.479 410.753C126.757 411.258 126.896 411.844 126.896 412.51C126.896 412.552 126.892 412.599 126.884 412.649C126.884 412.691 126.884 412.738 126.884 412.788H121.105V412.118H126.403L126.049 412.384C126.049 411.903 125.944 411.478 125.733 411.107C125.531 410.727 125.253 410.432 124.899 410.222C124.545 410.011 124.136 409.906 123.672 409.906C123.217 409.906 122.808 410.011 122.446 410.222C122.083 410.432 121.801 410.727 121.599 411.107C121.396 411.486 121.295 411.92 121.295 412.409V412.548C121.295 413.054 121.405 413.501 121.624 413.888C121.851 414.268 122.163 414.567 122.559 414.786C122.964 414.997 123.423 415.102 123.938 415.102C124.342 415.102 124.717 415.031 125.063 414.887C125.417 414.744 125.72 414.525 125.973 414.23L126.479 414.811C126.184 415.165 125.813 415.435 125.366 415.621C124.928 415.806 124.443 415.899 123.912 415.899ZM132.112 409.134C132.652 409.134 133.124 409.24 133.528 409.45C133.941 409.653 134.262 409.965 134.489 410.386C134.725 410.808 134.843 411.339 134.843 411.979V415.836H133.945V412.068C133.945 411.368 133.768 410.841 133.414 410.487C133.069 410.125 132.58 409.944 131.948 409.944C131.476 409.944 131.063 410.04 130.709 410.234C130.363 410.42 130.093 410.694 129.899 411.056C129.714 411.41 129.621 411.84 129.621 412.346V415.836H128.724V409.198H129.583V411.018L129.444 410.677C129.655 410.196 129.992 409.821 130.456 409.552C130.919 409.273 131.471 409.134 132.112 409.134ZM140.088 415.899C139.396 415.899 138.789 415.755 138.267 415.469C137.744 415.174 137.335 414.773 137.04 414.268C136.745 413.754 136.598 413.168 136.598 412.51C136.598 411.853 136.737 411.271 137.015 410.765C137.302 410.26 137.689 409.863 138.178 409.577C138.676 409.282 139.232 409.134 139.847 409.134C140.471 409.134 141.023 409.278 141.504 409.564C141.993 409.842 142.376 410.239 142.654 410.753C142.932 411.258 143.071 411.844 143.071 412.51C143.071 412.552 143.067 412.599 143.059 412.649C143.059 412.691 143.059 412.738 143.059 412.788H137.281V412.118H142.578L142.224 412.384C142.224 411.903 142.119 411.478 141.908 411.107C141.706 410.727 141.428 410.432 141.074 410.222C140.72 410.011 140.311 409.906 139.847 409.906C139.392 409.906 138.983 410.011 138.621 410.222C138.258 410.432 137.976 410.727 137.774 411.107C137.571 411.486 137.47 411.92 137.47 412.409V412.548C137.47 413.054 137.58 413.501 137.799 413.888C138.027 414.268 138.338 414.567 138.735 414.786C139.139 414.997 139.599 415.102 140.113 415.102C140.517 415.102 140.893 415.031 141.238 414.887C141.592 414.744 141.896 414.525 142.148 414.23L142.654 414.811C142.359 415.165 141.988 415.435 141.542 415.621C141.103 415.806 140.619 415.899 140.088 415.899ZM147.642 415.899C147.078 415.899 146.585 415.793 146.163 415.583C145.742 415.372 145.413 415.056 145.177 414.634C144.949 414.213 144.835 413.686 144.835 413.054V409.198H145.733V412.953C145.733 413.661 145.906 414.196 146.252 414.559C146.606 414.913 147.099 415.09 147.731 415.09C148.195 415.09 148.595 414.997 148.932 414.811C149.278 414.618 149.539 414.339 149.716 413.977C149.901 413.614 149.994 413.18 149.994 412.675V409.198H150.892V415.836H150.032V414.015L150.171 414.344C149.96 414.832 149.632 415.216 149.185 415.494C148.747 415.764 148.232 415.899 147.642 415.899ZM153.394 415.836V409.198H154.254V411.006L154.165 410.69C154.35 410.184 154.662 409.8 155.101 409.539C155.539 409.269 156.083 409.134 156.732 409.134V410.007C156.698 410.007 156.664 410.007 156.631 410.007C156.597 409.998 156.563 409.994 156.529 409.994C155.83 409.994 155.282 410.209 154.886 410.639C154.49 411.06 154.291 411.663 154.291 412.447V415.836H153.394ZM160.227 415.899C159.679 415.899 159.16 415.823 158.671 415.671C158.183 415.511 157.799 415.313 157.521 415.077L157.925 414.369C158.195 414.571 158.541 414.748 158.962 414.9C159.384 415.043 159.826 415.115 160.29 415.115C160.922 415.115 161.377 415.018 161.655 414.824C161.934 414.622 162.073 414.356 162.073 414.027C162.073 413.783 161.993 413.593 161.832 413.459C161.681 413.315 161.478 413.21 161.226 413.142C160.973 413.067 160.69 413.003 160.378 412.953C160.067 412.902 159.755 412.843 159.443 412.776C159.139 412.708 158.861 412.611 158.608 412.485C158.355 412.35 158.149 412.169 157.989 411.941C157.837 411.714 157.761 411.41 157.761 411.031C157.761 410.668 157.862 410.344 158.065 410.057C158.267 409.771 158.562 409.547 158.95 409.387C159.346 409.219 159.826 409.134 160.391 409.134C160.821 409.134 161.251 409.193 161.681 409.311C162.111 409.421 162.465 409.568 162.743 409.754L162.351 410.475C162.056 410.272 161.74 410.129 161.403 410.045C161.065 409.952 160.728 409.906 160.391 409.906C159.793 409.906 159.35 410.011 159.063 410.222C158.785 410.424 158.646 410.685 158.646 411.006C158.646 411.258 158.722 411.457 158.874 411.6C159.034 411.743 159.24 411.857 159.493 411.941C159.755 412.017 160.037 412.08 160.34 412.131C160.652 412.181 160.96 412.245 161.263 412.321C161.575 412.388 161.858 412.485 162.111 412.611C162.372 412.729 162.578 412.902 162.73 413.13C162.89 413.349 162.97 413.64 162.97 414.002C162.97 414.39 162.861 414.727 162.642 415.014C162.431 415.292 162.119 415.511 161.706 415.671C161.301 415.823 160.808 415.899 160.227 415.899ZM168.006 409.134C168.546 409.134 169.018 409.24 169.422 409.45C169.835 409.653 170.156 409.965 170.383 410.386C170.619 410.808 170.737 411.339 170.737 411.979V415.836H169.84V412.068C169.84 411.368 169.663 410.841 169.308 410.487C168.963 410.125 168.474 409.944 167.842 409.944C167.37 409.944 166.957 410.04 166.603 410.234C166.257 410.42 165.987 410.694 165.793 411.056C165.608 411.41 165.515 411.84 165.515 412.346V415.836H164.618V406.454H165.515V411.018L165.338 410.677C165.549 410.196 165.886 409.821 166.35 409.552C166.813 409.273 167.366 409.134 168.006 409.134ZM173.162 415.836V409.198H174.06V415.836H173.162ZM173.617 407.731C173.432 407.731 173.276 407.668 173.149 407.541C173.023 407.415 172.96 407.263 172.96 407.086C172.96 406.909 173.023 406.761 173.149 406.643C173.276 406.517 173.432 406.454 173.617 406.454C173.803 406.454 173.959 406.513 174.085 406.631C174.212 406.749 174.275 406.896 174.275 407.073C174.275 407.259 174.212 407.415 174.085 407.541C173.967 407.668 173.811 407.731 173.617 407.731ZM179.984 415.899C179.411 415.899 178.893 415.768 178.429 415.507C177.965 415.237 177.594 414.854 177.316 414.356C177.047 413.85 176.912 413.235 176.912 412.51C176.912 411.785 177.047 411.174 177.316 410.677C177.586 410.171 177.953 409.788 178.416 409.526C178.88 409.265 179.402 409.134 179.984 409.134C180.616 409.134 181.181 409.278 181.678 409.564C182.184 409.842 182.58 410.239 182.867 410.753C183.153 411.258 183.297 411.844 183.297 412.51C183.297 413.185 183.153 413.775 182.867 414.28C182.58 414.786 182.184 415.182 181.678 415.469C181.181 415.755 180.616 415.899 179.984 415.899ZM176.558 418.288V409.198H177.417V411.195L177.329 412.523L177.455 413.863V418.288H176.558ZM179.921 415.102C180.393 415.102 180.814 414.997 181.185 414.786C181.556 414.567 181.851 414.263 182.07 413.876C182.289 413.48 182.399 413.024 182.399 412.51C182.399 411.996 182.289 411.545 182.07 411.157C181.851 410.77 181.556 410.466 181.185 410.247C180.814 410.028 180.393 409.918 179.921 409.918C179.449 409.918 179.023 410.028 178.644 410.247C178.273 410.466 177.978 410.77 177.759 411.157C177.548 411.545 177.443 411.996 177.443 412.51C177.443 413.024 177.548 413.48 177.759 413.876C177.978 414.263 178.273 414.567 178.644 414.786C179.023 414.997 179.449 415.102 179.921 415.102Z" fill="#404040"/>
<path d="M109.496 28.3549C108.83 28.3549 108.215 28.2453 107.65 28.0261C107.086 27.7986 106.597 27.4825 106.184 27.0779C105.771 26.6733 105.446 26.197 105.21 25.6491C104.982 25.1012 104.869 24.5027 104.869 23.8537C104.869 23.2046 104.982 22.6062 105.21 22.0583C105.446 21.5104 105.771 21.0341 106.184 20.6295C106.605 20.2249 107.098 19.913 107.663 19.6939C108.228 19.4663 108.843 19.3525 109.509 19.3525C110.15 19.3525 110.752 19.4621 111.317 19.6812C111.882 19.892 112.358 20.2123 112.746 20.6422L112.151 21.2364C111.789 20.8655 111.389 20.6 110.95 20.4399C110.512 20.2713 110.04 20.187 109.534 20.187C109.003 20.187 108.51 20.2797 108.055 20.4651C107.6 20.6422 107.204 20.8992 106.866 21.2364C106.529 21.5652 106.264 21.9529 106.07 22.3996C105.884 22.838 105.792 23.3226 105.792 23.8537C105.792 24.3847 105.884 24.8736 106.07 25.3204C106.264 25.7587 106.529 26.1464 106.866 26.4836C107.204 26.8123 107.6 27.0694 108.055 27.2549C108.51 27.4319 109.003 27.5204 109.534 27.5204C110.04 27.5204 110.512 27.4361 110.95 27.2675C111.389 27.0989 111.789 26.8292 112.151 26.4583L112.746 27.0526C112.358 27.4825 111.882 27.807 111.317 28.0261C110.752 28.2453 110.145 28.3549 109.496 28.3549ZM116.96 28.3422C116.319 28.3422 115.742 28.1989 115.228 27.9124C114.722 27.6173 114.322 27.2169 114.027 26.7112C113.732 26.197 113.584 25.6112 113.584 24.9537C113.584 24.2878 113.732 23.702 114.027 23.1962C114.322 22.6905 114.722 22.2943 115.228 22.0077C115.734 21.7211 116.311 21.5778 116.96 21.5778C117.618 21.5778 118.199 21.7211 118.705 22.0077C119.219 22.2943 119.619 22.6905 119.906 23.1962C120.201 23.702 120.349 24.2878 120.349 24.9537C120.349 25.6112 120.201 26.197 119.906 26.7112C119.619 27.2169 119.219 27.6173 118.705 27.9124C118.191 28.1989 117.609 28.3422 116.96 28.3422ZM116.96 27.5457C117.441 27.5457 117.866 27.4403 118.237 27.2296C118.608 27.0104 118.899 26.707 119.11 26.3192C119.329 25.9231 119.438 25.4679 119.438 24.9537C119.438 24.4311 119.329 23.9759 119.11 23.5882C118.899 23.2004 118.608 22.9012 118.237 22.6905C117.866 22.4713 117.445 22.3617 116.973 22.3617C116.501 22.3617 116.079 22.4713 115.708 22.6905C115.337 22.9012 115.042 23.2004 114.823 23.5882C114.604 23.9759 114.495 24.4311 114.495 24.9537C114.495 25.4679 114.604 25.9231 114.823 26.3192C115.042 26.707 115.337 27.0104 115.708 27.2296C116.079 27.4403 116.496 27.5457 116.96 27.5457ZM130.476 21.5778C131.015 21.5778 131.483 21.6832 131.879 21.8939C132.284 22.0962 132.596 22.4081 132.815 22.8295C133.042 23.251 133.156 23.782 133.156 24.4227V28.279H132.258V24.5112C132.258 23.8115 132.09 23.2847 131.753 22.9307C131.424 22.5682 130.956 22.387 130.349 22.387C129.894 22.387 129.498 22.4839 129.161 22.6778C128.832 22.8633 128.575 23.1372 128.389 23.4997C128.212 23.8537 128.124 24.2836 128.124 24.7893V28.279H127.226V24.5112C127.226 23.8115 127.058 23.2847 126.721 22.9307C126.383 22.5682 125.911 22.387 125.304 22.387C124.858 22.387 124.466 22.4839 124.129 22.6778C123.791 22.8633 123.53 23.1372 123.345 23.4997C123.168 23.8537 123.079 24.2836 123.079 24.7893V28.279H122.181V21.641H123.041V23.4364L122.902 23.1203C123.104 22.6399 123.429 22.2648 123.876 21.995C124.331 21.7169 124.866 21.5778 125.481 21.5778C126.13 21.5778 126.683 21.7422 127.138 22.0709C127.593 22.3912 127.888 22.8759 128.023 23.5249L127.669 23.3859C127.863 22.8464 128.204 22.4123 128.693 22.0836C129.19 21.7464 129.785 21.5778 130.476 21.5778ZM143.885 21.5778C144.425 21.5778 144.892 21.6832 145.289 21.8939C145.693 22.0962 146.005 22.4081 146.224 22.8295C146.452 23.251 146.566 23.782 146.566 24.4227V28.279H145.668V24.5112C145.668 23.8115 145.499 23.2847 145.162 22.9307C144.833 22.5682 144.366 22.387 143.759 22.387C143.303 22.387 142.907 22.4839 142.57 22.6778C142.241 22.8633 141.984 23.1372 141.799 23.4997C141.622 23.8537 141.533 24.2836 141.533 24.7893V28.279H140.636V24.5112C140.636 23.8115 140.467 23.2847 140.13 22.9307C139.793 22.5682 139.321 22.387 138.714 22.387C138.267 22.387 137.875 22.4839 137.538 22.6778C137.201 22.8633 136.939 23.1372 136.754 23.4997C136.577 23.8537 136.488 24.2836 136.488 24.7893V28.279H135.591V21.641H136.451V23.4364L136.311 23.1203C136.514 22.6399 136.838 22.2648 137.285 21.995C137.74 21.7169 138.275 21.5778 138.891 21.5778C139.54 21.5778 140.092 21.7422 140.547 22.0709C141.002 22.3912 141.297 22.8759 141.432 23.5249L141.078 23.3859C141.272 22.8464 141.613 22.4123 142.102 22.0836C142.6 21.7464 143.194 21.5778 143.885 21.5778ZM151.744 28.3422C151.179 28.3422 150.686 28.2369 150.264 28.0261C149.843 27.8154 149.514 27.4993 149.278 27.0779C149.051 26.6564 148.937 26.1296 148.937 25.4974V21.641H149.835V25.3962C149.835 26.1043 150.007 26.6395 150.353 27.002C150.707 27.356 151.2 27.533 151.832 27.533C152.296 27.533 152.696 27.4403 153.033 27.2549C153.379 27.061 153.64 26.7828 153.817 26.4204C154.003 26.0579 154.096 25.6238 154.096 25.1181V21.641H154.993V28.279H154.133V26.4583L154.273 26.7871C154.062 27.2759 153.733 27.6595 153.286 27.9376C152.848 28.2074 152.334 28.3422 151.744 28.3422ZM160.884 21.5778C161.423 21.5778 161.895 21.6832 162.3 21.8939C162.713 22.0962 163.033 22.4081 163.261 22.8295C163.497 23.251 163.615 23.782 163.615 24.4227V28.279H162.717V24.5112C162.717 23.8115 162.54 23.2847 162.186 22.9307C161.84 22.5682 161.352 22.387 160.719 22.387C160.247 22.387 159.834 22.4839 159.48 22.6778C159.135 22.8633 158.865 23.1372 158.671 23.4997C158.486 23.8537 158.393 24.2836 158.393 24.7893V28.279H157.495V21.641H158.355V23.4617L158.216 23.1203C158.427 22.6399 158.764 22.2648 159.227 21.995C159.691 21.7169 160.243 21.5778 160.884 21.5778ZM166.04 28.279V21.641H166.937V28.279H166.04ZM166.495 20.1743C166.309 20.1743 166.153 20.1111 166.027 19.9847C165.901 19.8582 165.837 19.7065 165.837 19.5295C165.837 19.3525 165.901 19.205 166.027 19.087C166.153 18.9605 166.309 18.8973 166.495 18.8973C166.68 18.8973 166.836 18.9563 166.963 19.0743C167.089 19.1923 167.152 19.3398 167.152 19.5169C167.152 19.7023 167.089 19.8582 166.963 19.9847C166.845 20.1111 166.689 20.1743 166.495 20.1743ZM171.534 28.3422C170.91 28.3422 170.43 28.1737 170.093 27.8365C169.755 27.4993 169.587 27.0231 169.587 26.4077V20.1743H170.485V26.3572C170.485 26.7449 170.582 27.0441 170.775 27.2549C170.978 27.4656 171.264 27.571 171.635 27.571C172.031 27.571 172.36 27.4572 172.621 27.2296L172.937 27.8744C172.76 28.0346 172.546 28.1526 172.293 28.2284C172.048 28.3043 171.795 28.3422 171.534 28.3422ZM168.398 22.387V21.641H172.508V22.387H168.398ZM174.499 30.7951C174.187 30.7951 173.888 30.7446 173.601 30.6434C173.323 30.5423 173.083 30.3905 172.88 30.1882L173.298 29.5181C173.466 29.6783 173.647 29.8005 173.841 29.8848C174.044 29.9775 174.267 30.0239 174.511 30.0239C174.806 30.0239 175.059 29.9396 175.27 29.771C175.489 29.6108 175.696 29.3242 175.89 28.9112L176.32 27.9376L176.421 27.7986L179.152 21.641H180.037L176.711 29.0756C176.526 29.5055 176.32 29.8469 176.092 30.0997C175.873 30.3526 175.633 30.5296 175.371 30.6308C175.11 30.7404 174.819 30.7951 174.499 30.7951ZM176.269 28.4687L173.209 21.641H174.145L176.851 27.7353L176.269 28.4687Z" fill="#404040"/>
</svg>
