<svg width="402" height="486" viewBox="0 0 402 486" fill="none" xmlns="http://www.w3.org/2000/svg">
<path d="M234.453 6.73075C232.085 45.3866 228.514 83.8263 223.753 121.844C245.586 133.834 264.502 160.274 275.531 194.236C266.321 194.319 259.259 207.955 254.742 221.479C250.219 235.002 246.508 250.357 238.854 258.982C231.975 266.731 223.222 267.503 214.952 267.864C190.708 268.913 164.211 269.881 145.717 296.351C138.112 307.24 132.545 321.648 125.239 333.093C117.927 344.547 107.684 353.121 98.1199 348.325C87.9205 343.21 82.299 325.322 77.6357 309.195C51.3408 218.206 39.3203 165.488 0 89L0.000114679 48.06C33.3448 36.0724 64.3802 15.1123 97.5645 2.4185C109.839 -2.27454 234.856 0.236647 234.453 6.73075Z" fill="#F4EEE3"/>
<path d="M254.289 75.0133C243.831 136.328 233.36 197.64 222.901 258.954C204.872 293.285 186.829 327.63 168.8 361.96C205.911 390.241 243.025 418.507 280.136 446.788C304.425 401.564 328.715 356.34 353.001 311.13C372.047 249.05 382.954 216.08 402 154V122.286C352.765 106.533 303.523 90.7652 254.289 75.0133Z" fill="#8D9984"/>
<path d="M224.846 247.992C228.294 271.501 230.505 295.191 231.466 318.932C255.088 320.489 277.976 331.354 294.106 348.672C284.916 351.063 279.91 360.937 277.423 370.105C274.936 379.272 273.542 389.31 267.184 396.366C261.476 402.709 252.844 405.393 244.629 407.703C220.553 414.484 194.213 421.796 179.715 442.18C173.749 450.565 170.358 460.515 164.773 469.161C159.194 477.804 150.238 485.493 139.959 485.081C128.999 484.639 120.683 475.474 113.6 467.1C54.6728 467.1 41.6778 512.125 28.8052 377.837C68.0368 361.819 50.3365 299.126 87.3599 280.228C98.9217 274.325 224.248 244.04 224.829 247.991L224.846 247.992Z" fill="#D0DFE4"/>
<path d="M304.284 149.678L301.3 140.827H302.261L305.055 149.159H304.575L307.457 140.827H308.317L311.162 149.159H310.707L313.526 140.827H314.424L311.44 149.678H310.454L307.736 141.775H307.988L305.257 149.678H304.284ZM318.263 149.741C317.572 149.741 316.965 149.598 316.443 149.311C315.92 149.016 315.511 148.616 315.216 148.11C314.921 147.596 314.774 147.01 314.774 146.352C314.774 145.695 314.913 145.113 315.191 144.608C315.477 144.102 315.865 143.706 316.354 143.419C316.851 143.124 317.408 142.977 318.023 142.977C318.647 142.977 319.199 143.12 319.679 143.406C320.168 143.685 320.552 144.081 320.83 144.595C321.108 145.101 321.247 145.687 321.247 146.352C321.247 146.395 321.243 146.441 321.235 146.491C321.235 146.534 321.235 146.58 321.235 146.631H315.456V145.96H320.754L320.4 146.226C320.4 145.746 320.295 145.32 320.084 144.949C319.882 144.57 319.604 144.275 319.249 144.064C318.895 143.853 318.487 143.748 318.023 143.748C317.568 143.748 317.159 143.853 316.797 144.064C316.434 144.275 316.152 144.57 315.949 144.949C315.747 145.328 315.646 145.762 315.646 146.251V146.39C315.646 146.896 315.756 147.343 315.975 147.731C316.202 148.11 316.514 148.409 316.91 148.628C317.315 148.839 317.774 148.944 318.289 148.944C318.693 148.944 319.068 148.873 319.414 148.729C319.768 148.586 320.071 148.367 320.324 148.072L320.83 148.654C320.535 149.008 320.164 149.277 319.717 149.463C319.279 149.648 318.794 149.741 318.263 149.741ZM323.074 149.678V140.296H323.972V149.678H323.074ZM326.47 149.678V140.296H327.368V149.678H326.47ZM333.254 142.977C333.794 142.977 334.266 143.082 334.67 143.293C335.083 143.495 335.404 143.807 335.631 144.228C335.867 144.65 335.985 145.181 335.985 145.821V149.678H335.087V145.91C335.087 145.21 334.91 144.683 334.556 144.329C334.211 143.967 333.722 143.786 333.09 143.786C332.618 143.786 332.205 143.883 331.851 144.077C331.505 144.262 331.235 144.536 331.041 144.898C330.856 145.252 330.763 145.682 330.763 146.188V149.678H329.866V143.04H330.725V144.86L330.586 144.519C330.797 144.039 331.134 143.663 331.598 143.394C332.061 143.116 332.613 142.977 333.254 142.977ZM341.23 149.741C340.538 149.741 339.931 149.598 339.409 149.311C338.886 149.016 338.477 148.616 338.182 148.11C337.887 147.596 337.74 147.01 337.74 146.352C337.74 145.695 337.879 145.113 338.157 144.608C338.444 144.102 338.831 143.706 339.32 143.419C339.818 143.124 340.374 142.977 340.989 142.977C341.613 142.977 342.165 143.12 342.646 143.406C343.135 143.685 343.518 144.081 343.796 144.595C344.074 145.101 344.214 145.687 344.214 146.352C344.214 146.395 344.209 146.441 344.201 146.491C344.201 146.534 344.201 146.58 344.201 146.631H338.423V145.96H343.72L343.366 146.226C343.366 145.746 343.261 145.32 343.05 144.949C342.848 144.57 342.57 144.275 342.216 144.064C341.862 143.853 341.453 143.748 340.989 143.748C340.534 143.748 340.125 143.853 339.763 144.064C339.4 144.275 339.118 144.57 338.916 144.949C338.713 145.328 338.612 145.762 338.612 146.251V146.39C338.612 146.896 338.722 147.343 338.941 147.731C339.169 148.11 339.481 148.409 339.877 148.628C340.281 148.839 340.741 148.944 341.255 148.944C341.659 148.944 342.035 148.873 342.38 148.729C342.734 148.586 343.038 148.367 343.291 148.072L343.796 148.654C343.501 149.008 343.13 149.277 342.684 149.463C342.245 149.648 341.761 149.741 341.23 149.741ZM347.824 149.741C347.276 149.741 346.757 149.665 346.268 149.513C345.779 149.353 345.396 149.155 345.118 148.919L345.522 148.211C345.792 148.413 346.138 148.59 346.559 148.742C346.981 148.885 347.423 148.957 347.887 148.957C348.519 148.957 348.974 148.86 349.252 148.666C349.53 148.464 349.67 148.198 349.67 147.87C349.67 147.625 349.589 147.436 349.429 147.301C349.278 147.157 349.075 147.052 348.822 146.985C348.57 146.909 348.287 146.846 347.975 146.795C347.663 146.744 347.351 146.685 347.04 146.618C346.736 146.55 346.458 146.454 346.205 146.327C345.952 146.192 345.746 146.011 345.586 145.783C345.434 145.556 345.358 145.252 345.358 144.873C345.358 144.511 345.459 144.186 345.661 143.9C345.864 143.613 346.159 143.39 346.547 143.229C346.943 143.061 347.423 142.977 347.988 142.977C348.418 142.977 348.848 143.036 349.278 143.154C349.707 143.263 350.061 143.411 350.34 143.596L349.948 144.317C349.653 144.114 349.337 143.971 348.999 143.887C348.662 143.794 348.325 143.748 347.988 143.748C347.389 143.748 346.947 143.853 346.66 144.064C346.382 144.266 346.243 144.527 346.243 144.848C346.243 145.101 346.319 145.299 346.471 145.442C346.631 145.585 346.837 145.699 347.09 145.783C347.351 145.859 347.634 145.923 347.937 145.973C348.249 146.024 348.557 146.087 348.86 146.163C349.172 146.23 349.455 146.327 349.707 146.454C349.969 146.572 350.175 146.744 350.327 146.972C350.487 147.191 350.567 147.482 350.567 147.844C350.567 148.232 350.458 148.569 350.238 148.856C350.028 149.134 349.716 149.353 349.303 149.513C348.898 149.665 348.405 149.741 347.824 149.741ZM353.997 149.741C353.449 149.741 352.931 149.665 352.442 149.513C351.953 149.353 351.57 149.155 351.291 148.919L351.696 148.211C351.966 148.413 352.311 148.59 352.733 148.742C353.154 148.885 353.597 148.957 354.06 148.957C354.693 148.957 355.148 148.86 355.426 148.666C355.704 148.464 355.843 148.198 355.843 147.87C355.843 147.625 355.763 147.436 355.603 147.301C355.451 147.157 355.249 147.052 354.996 146.985C354.743 146.909 354.461 146.846 354.149 146.795C353.837 146.744 353.525 146.685 353.213 146.618C352.91 146.55 352.632 146.454 352.379 146.327C352.126 146.192 351.919 146.011 351.759 145.783C351.608 145.556 351.532 145.252 351.532 144.873C351.532 144.511 351.633 144.186 351.835 143.9C352.037 143.613 352.332 143.39 352.72 143.229C353.116 143.061 353.597 142.977 354.162 142.977C354.592 142.977 355.021 143.036 355.451 143.154C355.881 143.263 356.235 143.411 356.513 143.596L356.121 144.317C355.826 144.114 355.51 143.971 355.173 143.887C354.836 143.794 354.499 143.748 354.162 143.748C353.563 143.748 353.121 143.853 352.834 144.064C352.556 144.266 352.417 144.527 352.417 144.848C352.417 145.101 352.493 145.299 352.644 145.442C352.805 145.585 353.011 145.699 353.264 145.783C353.525 145.859 353.808 145.923 354.111 145.973C354.423 146.024 354.731 146.087 355.034 146.163C355.346 146.23 355.628 146.327 355.881 146.454C356.143 146.572 356.349 146.744 356.501 146.972C356.661 147.191 356.741 147.482 356.741 147.844C356.741 148.232 356.631 148.569 356.412 148.856C356.202 149.134 355.89 149.353 355.477 149.513C355.072 149.665 354.579 149.741 353.997 149.741Z" fill="#404040"/>
<path d="M87.2785 410.942H91.9567V411.739H87.2785V410.942ZM87.3797 415.026H92.7027V415.836H86.444V406.985H92.5131V407.794H87.3797V415.026ZM98.1009 409.134C98.6404 409.134 99.1124 409.24 99.517 409.45C99.9301 409.653 100.25 409.965 100.478 410.386C100.714 410.808 100.832 411.339 100.832 411.979V415.836H99.9343V412.068C99.9343 411.368 99.7573 410.841 99.4033 410.487C99.0577 410.125 98.5688 409.944 97.9366 409.944C97.4645 409.944 97.0515 410.04 96.6975 410.234C96.3519 410.42 96.0821 410.694 95.8883 411.056C95.7028 411.41 95.6101 411.84 95.6101 412.346V415.836H94.7124V409.198H95.5722V411.018L95.4331 410.677C95.6438 410.196 95.981 409.821 96.4446 409.552C96.9082 409.273 97.4603 409.134 98.1009 409.134ZM105.356 415.899C104.732 415.899 104.251 415.73 103.914 415.393C103.577 415.056 103.409 414.58 103.409 413.964V407.731H104.306V413.914C104.306 414.301 104.403 414.601 104.597 414.811C104.799 415.022 105.086 415.127 105.457 415.127C105.853 415.127 106.182 415.014 106.443 414.786L106.759 415.431C106.582 415.591 106.367 415.709 106.114 415.785C105.87 415.861 105.617 415.899 105.356 415.899ZM102.22 409.944V409.198H106.329V409.944H102.22ZM108.393 415.836V409.198H109.253V411.006L109.165 410.69C109.35 410.184 109.662 409.8 110.1 409.539C110.539 409.269 111.082 409.134 111.731 409.134V410.007C111.698 410.007 111.664 410.007 111.63 410.007C111.596 409.998 111.563 409.994 111.529 409.994C110.829 409.994 110.282 410.209 109.885 410.639C109.489 411.06 109.291 411.663 109.291 412.447V415.836H108.393ZM116.127 415.899C115.436 415.899 114.829 415.755 114.307 415.469C113.784 415.174 113.375 414.773 113.08 414.268C112.785 413.754 112.638 413.168 112.638 412.51C112.638 411.853 112.777 411.271 113.055 410.765C113.341 410.26 113.729 409.863 114.218 409.577C114.715 409.282 115.272 409.134 115.887 409.134C116.511 409.134 117.063 409.278 117.543 409.564C118.032 409.842 118.416 410.239 118.694 410.753C118.972 411.258 119.111 411.844 119.111 412.51C119.111 412.552 119.107 412.599 119.099 412.649C119.099 412.691 119.099 412.738 119.099 412.788H113.32V412.118H118.618L118.264 412.384C118.264 411.903 118.159 411.478 117.948 411.107C117.746 410.727 117.468 410.432 117.113 410.222C116.759 410.011 116.351 409.906 115.887 409.906C115.432 409.906 115.023 410.011 114.661 410.222C114.298 410.432 114.016 410.727 113.813 411.107C113.611 411.486 113.51 411.92 113.51 412.409V412.548C113.51 413.054 113.62 413.501 113.839 413.888C114.066 414.268 114.378 414.567 114.774 414.786C115.179 414.997 115.638 415.102 116.153 415.102C116.557 415.102 116.932 415.031 117.278 414.887C117.632 414.744 117.935 414.525 118.188 414.23L118.694 414.811C118.399 415.165 118.028 415.435 117.581 415.621C117.143 415.806 116.658 415.899 116.127 415.899ZM124.365 415.899C123.792 415.899 123.273 415.768 122.81 415.507C122.346 415.237 121.975 414.854 121.697 414.356C121.427 413.85 121.292 413.235 121.292 412.51C121.292 411.785 121.427 411.174 121.697 410.677C121.967 410.171 122.333 409.788 122.797 409.526C123.261 409.265 123.783 409.134 124.365 409.134C124.997 409.134 125.562 409.278 126.059 409.564C126.565 409.842 126.961 410.239 127.248 410.753C127.534 411.258 127.678 411.844 127.678 412.51C127.678 413.185 127.534 413.775 127.248 414.28C126.961 414.786 126.565 415.182 126.059 415.469C125.562 415.755 124.997 415.899 124.365 415.899ZM120.938 418.288V409.198H121.798V411.195L121.71 412.523L121.836 413.863V418.288H120.938ZM124.302 415.102C124.774 415.102 125.195 414.997 125.566 414.786C125.937 414.567 126.232 414.263 126.451 413.876C126.67 413.48 126.78 413.024 126.78 412.51C126.78 411.996 126.67 411.545 126.451 411.157C126.232 410.77 125.937 410.466 125.566 410.247C125.195 410.028 124.774 409.918 124.302 409.918C123.83 409.918 123.404 410.028 123.025 410.247C122.654 410.466 122.359 410.77 122.14 411.157C121.929 411.545 121.823 411.996 121.823 412.51C121.823 413.024 121.929 413.48 122.14 413.876C122.359 414.263 122.654 414.567 123.025 414.786C123.404 414.997 123.83 415.102 124.302 415.102ZM129.508 415.836V409.198H130.367V411.006L130.279 410.69C130.464 410.184 130.776 409.8 131.214 409.539C131.653 409.269 132.196 409.134 132.846 409.134V410.007C132.812 410.007 132.778 410.007 132.744 410.007C132.711 409.998 132.677 409.994 132.643 409.994C131.944 409.994 131.396 410.209 131 410.639C130.603 411.06 130.405 411.663 130.405 412.447V415.836H129.508ZM137.241 415.899C136.55 415.899 135.943 415.755 135.421 415.469C134.898 415.174 134.489 414.773 134.194 414.268C133.899 413.754 133.752 413.168 133.752 412.51C133.752 411.853 133.891 411.271 134.169 410.765C134.456 410.26 134.843 409.863 135.332 409.577C135.83 409.282 136.386 409.134 137.001 409.134C137.625 409.134 138.177 409.278 138.658 409.564C139.146 409.842 139.53 410.239 139.808 410.753C140.086 411.258 140.225 411.844 140.225 412.51C140.225 412.552 140.221 412.599 140.213 412.649C140.213 412.691 140.213 412.738 140.213 412.788H134.435V412.118H139.732L139.378 412.384C139.378 411.903 139.273 411.478 139.062 411.107C138.86 410.727 138.582 410.432 138.228 410.222C137.874 410.011 137.465 409.906 137.001 409.906C136.546 409.906 136.137 410.011 135.775 410.222C135.412 410.432 135.13 410.727 134.928 411.107C134.725 411.486 134.624 411.92 134.624 412.409V412.548C134.624 413.054 134.734 413.501 134.953 413.888C135.181 414.268 135.492 414.567 135.889 414.786C136.293 414.997 136.753 415.102 137.267 415.102C137.671 415.102 138.046 415.031 138.392 414.887C138.746 414.744 139.05 414.525 139.302 414.23L139.808 414.811C139.513 415.165 139.142 415.435 138.695 415.621C138.257 415.806 137.772 415.899 137.241 415.899ZM145.441 409.134C145.981 409.134 146.453 409.24 146.857 409.45C147.27 409.653 147.591 409.965 147.818 410.386C148.054 410.808 148.172 411.339 148.172 411.979V415.836H147.275V412.068C147.275 411.368 147.097 410.841 146.743 410.487C146.398 410.125 145.909 409.944 145.277 409.944C144.805 409.944 144.392 410.04 144.038 410.234C143.692 410.42 143.422 410.694 143.228 411.056C143.043 411.41 142.95 411.84 142.95 412.346V415.836H142.053V409.198H142.912V411.018L142.773 410.677C142.984 410.196 143.321 409.821 143.785 409.552C144.248 409.273 144.801 409.134 145.441 409.134ZM153.417 415.899C152.725 415.899 152.119 415.755 151.596 415.469C151.073 415.174 150.664 414.773 150.369 414.268C150.074 413.754 149.927 413.168 149.927 412.51C149.927 411.853 150.066 411.271 150.344 410.765C150.631 410.26 151.019 409.863 151.507 409.577C152.005 409.282 152.561 409.134 153.176 409.134C153.8 409.134 154.352 409.278 154.833 409.564C155.322 409.842 155.705 410.239 155.983 410.753C156.261 411.258 156.401 411.844 156.401 412.51C156.401 412.552 156.396 412.599 156.388 412.649C156.388 412.691 156.388 412.738 156.388 412.788H150.61V412.118H155.907L155.553 412.384C155.553 411.903 155.448 411.478 155.237 411.107C155.035 410.727 154.757 410.432 154.403 410.222C154.049 410.011 153.64 409.906 153.176 409.906C152.721 409.906 152.312 410.011 151.95 410.222C151.587 410.432 151.305 410.727 151.103 411.107C150.901 411.486 150.799 411.92 150.799 412.409V412.548C150.799 413.054 150.909 413.501 151.128 413.888C151.356 414.268 151.668 414.567 152.064 414.786C152.468 414.997 152.928 415.102 153.442 415.102C153.847 415.102 154.222 415.031 154.567 414.887C154.921 414.744 155.225 414.525 155.478 414.23L155.983 414.811C155.688 415.165 155.317 415.435 154.871 415.621C154.432 415.806 153.948 415.899 153.417 415.899ZM160.972 415.899C160.407 415.899 159.914 415.793 159.492 415.583C159.071 415.372 158.742 415.056 158.506 414.634C158.278 414.213 158.165 413.686 158.165 413.054V409.198H159.062V412.953C159.062 413.661 159.235 414.196 159.581 414.559C159.935 414.913 160.428 415.09 161.06 415.09C161.524 415.09 161.924 414.997 162.261 414.811C162.607 414.618 162.868 414.339 163.045 413.977C163.231 413.614 163.323 413.18 163.323 412.675V409.198H164.221V415.836H163.361V414.015L163.5 414.344C163.29 414.832 162.961 415.216 162.514 415.494C162.076 415.764 161.562 415.899 160.972 415.899ZM166.723 415.836V409.198H167.583V411.006L167.494 410.69C167.68 410.184 167.991 409.8 168.43 409.539C168.868 409.269 169.412 409.134 170.061 409.134V410.007C170.027 410.007 169.993 410.007 169.96 410.007C169.926 409.998 169.892 409.994 169.859 409.994C169.159 409.994 168.611 410.209 168.215 410.639C167.819 411.06 167.621 411.663 167.621 412.447V415.836H166.723Z" fill="#404040"/>
<path d="M109.496 28.3549C108.83 28.3549 108.215 28.2453 107.65 28.0261C107.086 27.7986 106.597 27.4825 106.184 27.0779C105.771 26.6733 105.446 26.197 105.21 25.6491C104.982 25.1012 104.869 24.5027 104.869 23.8537C104.869 23.2046 104.982 22.6062 105.21 22.0583C105.446 21.5104 105.771 21.0341 106.184 20.6295C106.605 20.2249 107.098 19.913 107.663 19.6939C108.228 19.4663 108.843 19.3525 109.509 19.3525C110.15 19.3525 110.752 19.4621 111.317 19.6812C111.882 19.892 112.358 20.2123 112.746 20.6422L112.151 21.2364C111.789 20.8655 111.389 20.6 110.95 20.4399C110.512 20.2713 110.04 20.187 109.534 20.187C109.003 20.187 108.51 20.2797 108.055 20.4651C107.6 20.6422 107.204 20.8992 106.866 21.2364C106.529 21.5652 106.264 21.9529 106.07 22.3996C105.884 22.838 105.792 23.3226 105.792 23.8537C105.792 24.3847 105.884 24.8736 106.07 25.3204C106.264 25.7587 106.529 26.1464 106.866 26.4836C107.204 26.8123 107.6 27.0694 108.055 27.2549C108.51 27.4319 109.003 27.5204 109.534 27.5204C110.04 27.5204 110.512 27.4361 110.95 27.2675C111.389 27.0989 111.789 26.8292 112.151 26.4583L112.746 27.0526C112.358 27.4825 111.882 27.807 111.317 28.0261C110.752 28.2453 110.145 28.3549 109.496 28.3549ZM116.96 28.3422C116.319 28.3422 115.742 28.1989 115.228 27.9124C114.722 27.6173 114.322 27.2169 114.027 26.7112C113.732 26.197 113.584 25.6112 113.584 24.9537C113.584 24.2878 113.732 23.702 114.027 23.1962C114.322 22.6905 114.722 22.2943 115.228 22.0077C115.734 21.7211 116.311 21.5778 116.96 21.5778C117.618 21.5778 118.199 21.7211 118.705 22.0077C119.219 22.2943 119.619 22.6905 119.906 23.1962C120.201 23.702 120.349 24.2878 120.349 24.9537C120.349 25.6112 120.201 26.197 119.906 26.7112C119.619 27.2169 119.219 27.6173 118.705 27.9124C118.191 28.1989 117.609 28.3422 116.96 28.3422ZM116.96 27.5457C117.441 27.5457 117.866 27.4403 118.237 27.2296C118.608 27.0104 118.899 26.707 119.11 26.3192C119.329 25.9231 119.438 25.4679 119.438 24.9537C119.438 24.4311 119.329 23.9759 119.11 23.5882C118.899 23.2004 118.608 22.9012 118.237 22.6905C117.866 22.4713 117.445 22.3617 116.973 22.3617C116.501 22.3617 116.079 22.4713 115.708 22.6905C115.337 22.9012 115.042 23.2004 114.823 23.5882C114.604 23.9759 114.495 24.4311 114.495 24.9537C114.495 25.4679 114.604 25.9231 114.823 26.3192C115.042 26.707 115.337 27.0104 115.708 27.2296C116.079 27.4403 116.496 27.5457 116.96 27.5457ZM130.476 21.5778C131.015 21.5778 131.483 21.6832 131.879 21.8939C132.284 22.0962 132.596 22.4081 132.815 22.8295C133.042 23.251 133.156 23.782 133.156 24.4227V28.279H132.258V24.5112C132.258 23.8115 132.09 23.2847 131.753 22.9307C131.424 22.5682 130.956 22.387 130.349 22.387C129.894 22.387 129.498 22.4839 129.161 22.6778C128.832 22.8633 128.575 23.1372 128.389 23.4997C128.212 23.8537 128.124 24.2836 128.124 24.7893V28.279H127.226V24.5112C127.226 23.8115 127.058 23.2847 126.721 22.9307C126.383 22.5682 125.911 22.387 125.304 22.387C124.858 22.387 124.466 22.4839 124.129 22.6778C123.791 22.8633 123.53 23.1372 123.345 23.4997C123.168 23.8537 123.079 24.2836 123.079 24.7893V28.279H122.181V21.641H123.041V23.4364L122.902 23.1203C123.104 22.6399 123.429 22.2648 123.876 21.995C124.331 21.7169 124.866 21.5778 125.481 21.5778C126.13 21.5778 126.683 21.7422 127.138 22.0709C127.593 22.3912 127.888 22.8759 128.023 23.5249L127.669 23.3859C127.863 22.8464 128.204 22.4123 128.693 22.0836C129.19 21.7464 129.785 21.5778 130.476 21.5778ZM143.885 21.5778C144.425 21.5778 144.892 21.6832 145.289 21.8939C145.693 22.0962 146.005 22.4081 146.224 22.8295C146.452 23.251 146.566 23.782 146.566 24.4227V28.279H145.668V24.5112C145.668 23.8115 145.499 23.2847 145.162 22.9307C144.833 22.5682 144.366 22.387 143.759 22.387C143.303 22.387 142.907 22.4839 142.57 22.6778C142.241 22.8633 141.984 23.1372 141.799 23.4997C141.622 23.8537 141.533 24.2836 141.533 24.7893V28.279H140.636V24.5112C140.636 23.8115 140.467 23.2847 140.13 22.9307C139.793 22.5682 139.321 22.387 138.714 22.387C138.267 22.387 137.875 22.4839 137.538 22.6778C137.201 22.8633 136.939 23.1372 136.754 23.4997C136.577 23.8537 136.488 24.2836 136.488 24.7893V28.279H135.591V21.641H136.451V23.4364L136.311 23.1203C136.514 22.6399 136.838 22.2648 137.285 21.995C137.74 21.7169 138.275 21.5778 138.891 21.5778C139.54 21.5778 140.092 21.7422 140.547 22.0709C141.002 22.3912 141.297 22.8759 141.432 23.5249L141.078 23.3859C141.272 22.8464 141.613 22.4123 142.102 22.0836C142.6 21.7464 143.194 21.5778 143.885 21.5778ZM151.744 28.3422C151.179 28.3422 150.686 28.2369 150.264 28.0261C149.843 27.8154 149.514 27.4993 149.278 27.0779C149.051 26.6564 148.937 26.1296 148.937 25.4974V21.641H149.835V25.3962C149.835 26.1043 150.007 26.6395 150.353 27.002C150.707 27.356 151.2 27.533 151.832 27.533C152.296 27.533 152.696 27.4403 153.033 27.2549C153.379 27.061 153.64 26.7828 153.817 26.4204C154.003 26.0579 154.096 25.6238 154.096 25.1181V21.641H154.993V28.279H154.133V26.4583L154.273 26.7871C154.062 27.2759 153.733 27.6595 153.286 27.9376C152.848 28.2074 152.334 28.3422 151.744 28.3422ZM160.884 21.5778C161.423 21.5778 161.895 21.6832 162.3 21.8939C162.713 22.0962 163.033 22.4081 163.261 22.8295C163.497 23.251 163.615 23.782 163.615 24.4227V28.279H162.717V24.5112C162.717 23.8115 162.54 23.2847 162.186 22.9307C161.84 22.5682 161.352 22.387 160.719 22.387C160.247 22.387 159.834 22.4839 159.48 22.6778C159.135 22.8633 158.865 23.1372 158.671 23.4997C158.486 23.8537 158.393 24.2836 158.393 24.7893V28.279H157.495V21.641H158.355V23.4617L158.216 23.1203C158.427 22.6399 158.764 22.2648 159.227 21.995C159.691 21.7169 160.243 21.5778 160.884 21.5778ZM166.04 28.279V21.641H166.937V28.279H166.04ZM166.495 20.1743C166.309 20.1743 166.153 20.1111 166.027 19.9847C165.901 19.8582 165.837 19.7065 165.837 19.5295C165.837 19.3525 165.901 19.205 166.027 19.087C166.153 18.9605 166.309 18.8973 166.495 18.8973C166.68 18.8973 166.836 18.9563 166.963 19.0743C167.089 19.1923 167.152 19.3398 167.152 19.5169C167.152 19.7023 167.089 19.8582 166.963 19.9847C166.845 20.1111 166.689 20.1743 166.495 20.1743ZM171.534 28.3422C170.91 28.3422 170.43 28.1737 170.093 27.8365C169.755 27.4993 169.587 27.0231 169.587 26.4077V20.1743H170.485V26.3572C170.485 26.7449 170.582 27.0441 170.775 27.2549C170.978 27.4656 171.264 27.571 171.635 27.571C172.031 27.571 172.36 27.4572 172.621 27.2296L172.937 27.8744C172.76 28.0346 172.546 28.1526 172.293 28.2284C172.048 28.3043 171.795 28.3422 171.534 28.3422ZM168.398 22.387V21.641H172.508V22.387H168.398ZM174.499 30.7951C174.187 30.7951 173.888 30.7446 173.601 30.6434C173.323 30.5423 173.083 30.3905 172.88 30.1882L173.298 29.5181C173.466 29.6783 173.647 29.8005 173.841 29.8848C174.044 29.9775 174.267 30.0239 174.511 30.0239C174.806 30.0239 175.059 29.9396 175.27 29.771C175.489 29.6108 175.696 29.3242 175.89 28.9112L176.32 27.9376L176.421 27.7986L179.152 21.641H180.037L176.711 29.0756C176.526 29.5055 176.32 29.8469 176.092 30.0997C175.873 30.3526 175.633 30.5296 175.371 30.6308C175.11 30.7404 174.819 30.7951 174.499 30.7951ZM176.269 28.4687L173.209 21.641H174.145L176.851 27.7353L176.269 28.4687Z" fill="#404040"/>
</svg>
